<svg width="26" height="29" viewBox="0 0 26 29" fill="none" xmlns="http://www.w3.org/2000/svg">
<path d="M3.25 15.325L7.5 14.325L16.7929 5.03216C17.1834 4.64163 17.1834 4.00847 16.7929 3.61794L14.9571 1.78216C14.5666 1.39163 13.9334 1.39163 13.5429 1.78216L4.25 11.075L3.25 15.325Z" stroke="#747488" stroke-width="1.5" stroke-linecap="round" stroke-linejoin="round"/>
<path d="M17.75 15.3252H12.25" stroke="#747488" stroke-width="1.5" stroke-linecap="round" stroke-linejoin="round"/>
<path d="M0.564 28.0752C0.436 28.0752 0.334667 28.0405 0.26 27.9712C0.190667 27.8965 0.156 27.7979 0.156 27.6752V22.8352C0.156 22.7125 0.190667 22.6165 0.26 22.5472C0.334667 22.4725 0.436 22.4352 0.564 22.4352H3.508C3.63067 22.4352 3.724 22.4645 3.788 22.5232C3.85733 22.5819 3.892 22.6645 3.892 22.7712C3.892 22.8779 3.85733 22.9605 3.788 23.0192C3.724 23.0725 3.63067 23.0992 3.508 23.0992H0.964V24.8752H3.348C3.47067 24.8752 3.564 24.9045 3.628 24.9632C3.69733 25.0219 3.732 25.1045 3.732 25.2112C3.732 25.3179 3.69733 25.4005 3.628 25.4592C3.564 25.5179 3.47067 25.5472 3.348 25.5472H0.964V27.4112H3.508C3.764 27.4112 3.892 27.5205 3.892 27.7392C3.892 27.8459 3.85733 27.9285 3.788 27.9872C3.724 28.0459 3.63067 28.0752 3.508 28.0752H0.564ZM7.93169 22.3952C8.05435 22.3952 8.15302 22.4299 8.22769 22.4992C8.30235 22.5685 8.33969 22.6619 8.33969 22.7792V27.7232C8.33969 27.8459 8.30235 27.9419 8.22769 28.0112C8.15835 28.0805 8.06235 28.1152 7.93969 28.1152C7.81702 28.1152 7.71835 28.0805 7.64369 28.0112C7.57435 27.9419 7.53969 27.8459 7.53969 27.7232V27.4032C7.42235 27.6379 7.25169 27.8192 7.02769 27.9472C6.80369 28.0699 6.54502 28.1312 6.25169 28.1312C5.91569 28.1312 5.61435 28.0459 5.34769 27.8752C5.08635 27.7045 4.88102 27.4645 4.73169 27.1552C4.58769 26.8459 4.51569 26.4912 4.51569 26.0912C4.51569 25.6859 4.58769 25.3312 4.73169 25.0272C4.88102 24.7232 5.08635 24.4885 5.34769 24.3232C5.60902 24.1579 5.91035 24.0752 6.25169 24.0752C6.54502 24.0752 6.80102 24.1392 7.01969 24.2672C7.24369 24.3899 7.41435 24.5659 7.53169 24.7952V22.7632C7.53169 22.6512 7.56635 22.5632 7.63569 22.4992C7.71035 22.4299 7.80902 22.3952 7.93169 22.3952ZM6.44369 27.4912C6.79035 27.4912 7.05969 27.3712 7.25169 27.1312C7.44369 26.8912 7.53969 26.5499 7.53969 26.1072C7.53969 25.6645 7.44369 25.3232 7.25169 25.0832C7.06502 24.8432 6.79569 24.7232 6.44369 24.7232C6.09169 24.7232 5.81702 24.8432 5.61969 25.0832C5.42769 25.3179 5.33169 25.6539 5.33169 26.0912C5.33169 26.5285 5.43035 26.8725 5.62769 27.1232C5.82502 27.3685 6.09702 27.4912 6.44369 27.4912ZM9.87425 28.1152C9.75692 28.1152 9.65825 28.0832 9.57825 28.0192C9.50358 27.9552 9.46625 27.8592 9.46625 27.7312V24.4832C9.46625 24.3552 9.50358 24.2592 9.57825 24.1952C9.65825 24.1259 9.75692 24.0912 9.87425 24.0912C9.99158 24.0912 10.0876 24.1259 10.1623 24.1952C10.2369 24.2592 10.2743 24.3552 10.2743 24.4832V27.7312C10.2743 27.8592 10.2369 27.9552 10.1623 28.0192C10.0876 28.0832 9.99158 28.1152 9.87425 28.1152ZM9.87425 23.3072C9.71958 23.3072 9.59692 23.2645 9.50625 23.1792C9.41558 23.0939 9.37025 22.9819 9.37025 22.8432C9.37025 22.7045 9.41558 22.5952 9.50625 22.5152C9.59692 22.4299 9.71958 22.3872 9.87425 22.3872C10.0236 22.3872 10.1436 22.4299 10.2343 22.5152C10.3303 22.5952 10.3783 22.7045 10.3783 22.8432C10.3783 22.9819 10.3329 23.0939 10.2423 23.1792C10.1516 23.2645 10.0289 23.3072 9.87425 23.3072ZM13.4251 27.4992C13.5425 27.5099 13.6251 27.5419 13.6731 27.5952C13.7265 27.6432 13.7531 27.7125 13.7531 27.8032C13.7531 27.9099 13.7105 27.9925 13.6251 28.0512C13.5451 28.1045 13.4251 28.1259 13.2651 28.1152L13.0491 28.0992C12.6171 28.0672 12.2945 27.9365 12.0811 27.7072C11.8678 27.4725 11.7611 27.1285 11.7611 26.6752V24.7952H11.2811C11.0465 24.7952 10.9291 24.6912 10.9291 24.4832C10.9291 24.3872 10.9585 24.3125 11.0171 24.2592C11.0811 24.2005 11.1691 24.1712 11.2811 24.1712H11.7611V23.3472C11.7611 23.2245 11.7958 23.1285 11.8651 23.0592C11.9398 22.9899 12.0385 22.9552 12.1611 22.9552C12.2838 22.9552 12.3825 22.9899 12.4571 23.0592C12.5318 23.1285 12.5691 23.2245 12.5691 23.3472V24.1712H13.3611C13.4731 24.1712 13.5585 24.2005 13.6171 24.2592C13.6811 24.3125 13.7131 24.3872 13.7131 24.4832C13.7131 24.5845 13.6811 24.6619 13.6171 24.7152C13.5585 24.7685 13.4731 24.7952 13.3611 24.7952H12.5691V26.7312C12.5691 26.9819 12.6198 27.1659 12.7211 27.2832C12.8278 27.4005 12.9878 27.4672 13.2011 27.4832L13.4251 27.4992ZM15.9734 24.0752C16.4908 24.0752 16.8748 24.2059 17.1254 24.4672C17.3814 24.7285 17.5094 25.1259 17.5094 25.6592V27.7312C17.5094 27.8539 17.4748 27.9499 17.4054 28.0192C17.3361 28.0832 17.2401 28.1152 17.1174 28.1152C17.0001 28.1152 16.9068 28.0805 16.8374 28.0112C16.7681 27.9419 16.7334 27.8485 16.7334 27.7312V27.4352C16.6321 27.6592 16.4801 27.8325 16.2774 27.9552C16.0801 28.0725 15.8481 28.1312 15.5814 28.1312C15.3254 28.1312 15.0908 28.0805 14.8774 27.9792C14.6694 27.8725 14.5041 27.7285 14.3814 27.5472C14.2588 27.3659 14.1974 27.1605 14.1974 26.9312C14.1921 26.6432 14.2641 26.4192 14.4134 26.2592C14.5628 26.0939 14.8054 25.9765 15.1414 25.9072C15.4774 25.8325 15.9441 25.7952 16.5414 25.7952H16.7254V25.5632C16.7254 25.2645 16.6641 25.0485 16.5414 24.9152C16.4188 24.7819 16.2214 24.7152 15.9494 24.7152C15.7628 24.7152 15.5868 24.7392 15.4214 24.7872C15.2561 24.8352 15.0748 24.9045 14.8774 24.9952C14.7334 25.0752 14.6321 25.1152 14.5734 25.1152C14.4934 25.1152 14.4268 25.0859 14.3734 25.0272C14.3254 24.9685 14.3014 24.8939 14.3014 24.8032C14.3014 24.7232 14.3228 24.6539 14.3654 24.5952C14.4134 24.5312 14.4881 24.4699 14.5894 24.4112C14.7761 24.3099 14.9948 24.2299 15.2454 24.1712C15.4961 24.1072 15.7388 24.0752 15.9734 24.0752ZM15.7254 27.5312C16.0188 27.5312 16.2588 27.4325 16.4454 27.2352C16.6321 27.0325 16.7254 26.7739 16.7254 26.4592V26.2512H16.5814C16.1654 26.2512 15.8454 26.2699 15.6214 26.3072C15.3974 26.3445 15.2374 26.4085 15.1414 26.4992C15.0454 26.5845 14.9974 26.7099 14.9974 26.8752C14.9974 27.0672 15.0668 27.2245 15.2054 27.3472C15.3441 27.4699 15.5174 27.5312 15.7254 27.5312ZM20.6627 24.0912C20.9187 24.0752 21.0467 24.1845 21.0467 24.4192C21.0467 24.5365 21.0174 24.6245 20.9587 24.6832C20.9 24.7419 20.7987 24.7765 20.6547 24.7872L20.4147 24.8112C20.0787 24.8432 19.828 24.9605 19.6627 25.1632C19.5027 25.3659 19.4227 25.6112 19.4227 25.8992V27.7312C19.4227 27.8592 19.3854 27.9552 19.3107 28.0192C19.236 28.0832 19.14 28.1152 19.0227 28.1152C18.9054 28.1152 18.8067 28.0832 18.7267 28.0192C18.652 27.9552 18.6147 27.8592 18.6147 27.7312V24.4752C18.6147 24.3525 18.652 24.2592 18.7267 24.1952C18.8067 24.1259 18.9054 24.0912 19.0227 24.0912C19.1294 24.0912 19.2174 24.1259 19.2867 24.1952C19.3614 24.2592 19.3987 24.3499 19.3987 24.4672V24.8512C19.5054 24.6165 19.66 24.4379 19.8627 24.3152C20.0654 24.1925 20.2947 24.1205 20.5507 24.0992L20.6627 24.0912Z" fill="#747488"/>
</svg>
