<svg width="247" height="34" viewBox="0 0 247 34" fill="none" xmlns="http://www.w3.org/2000/svg">
<rect x="1" y="0.81543" width="245" height="32" rx="9.5" fill="#F8F8F9"/>
<path d="M64.0625 22.2528L67.25 21.5028L74.2197 14.5331C74.5126 14.2403 74.5126 13.7654 74.2197 13.4725L72.8428 12.0956C72.55 11.8028 72.0751 11.8028 71.7822 12.0956L64.8125 19.0653L64.0625 22.2528Z" stroke="#0E8750" stroke-width="1.5" stroke-linecap="round" stroke-linejoin="round"/>
<path d="M74.9375 22.2529H70.8125" stroke="#0E8750" stroke-width="1.5" stroke-linecap="round" stroke-linejoin="round"/>
<path d="M80.822 22.3154C80.594 22.3154 80.408 22.2494 80.264 22.1174C80.132 21.9854 80.066 21.8114 80.066 21.5954V10.3454C80.066 10.1294 80.132 9.95543 80.264 9.82343C80.408 9.69143 80.594 9.62543 80.822 9.62543H87.554C87.77 9.62543 87.938 9.67943 88.058 9.78743C88.178 9.89543 88.238 10.0454 88.238 10.2374C88.238 10.4294 88.178 10.5794 88.058 10.6874C87.938 10.7954 87.77 10.8494 87.554 10.8494H81.524V15.2594H87.194C87.41 15.2594 87.578 15.3134 87.698 15.4214C87.818 15.5294 87.878 15.6794 87.878 15.8714C87.878 16.0634 87.818 16.2134 87.698 16.3214C87.578 16.4294 87.41 16.4834 87.194 16.4834H81.524V21.0914H87.554C87.77 21.0914 87.938 21.1454 88.058 21.2534C88.178 21.3494 88.238 21.4994 88.238 21.7034C88.238 21.8954 88.178 22.0454 88.058 22.1534C87.938 22.2614 87.77 22.3154 87.554 22.3154H80.822ZM97.3646 9.53543C97.5926 9.53543 97.7726 9.60143 97.9046 9.73343C98.0366 9.86543 98.1026 10.0334 98.1026 10.2374V21.6854C98.1026 21.9014 98.0366 22.0754 97.9046 22.2074C97.7726 22.3394 97.5926 22.4054 97.3646 22.4054C97.1366 22.4054 96.9566 22.3394 96.8246 22.2074C96.7046 22.0754 96.6446 21.9014 96.6446 21.6854V20.7134C96.3806 21.2654 95.9906 21.6914 95.4746 21.9914C94.9706 22.2914 94.3766 22.4414 93.6926 22.4414C92.9246 22.4414 92.2466 22.2494 91.6586 21.8654C91.0706 21.4814 90.6146 20.9474 90.2906 20.2634C89.9666 19.5674 89.8046 18.7634 89.8046 17.8514C89.8046 16.9514 89.9666 16.1594 90.2906 15.4754C90.6146 14.7914 91.0706 14.2634 91.6586 13.8914C92.2466 13.5194 92.9246 13.3334 93.6926 13.3334C94.3766 13.3334 94.9706 13.4834 95.4746 13.7834C95.9906 14.0834 96.3806 14.5094 96.6446 15.0614V10.2374C96.6446 10.0214 96.7046 9.85343 96.8246 9.73343C96.9566 9.60143 97.1366 9.53543 97.3646 9.53543ZM93.9806 21.2354C94.8326 21.2354 95.4866 20.9474 95.9426 20.3714C96.4106 19.7834 96.6446 18.9554 96.6446 17.8874C96.6446 16.8194 96.4106 15.9974 95.9426 15.4214C95.4866 14.8454 94.8326 14.5574 93.9806 14.5574C93.1286 14.5574 92.4626 14.8454 91.9826 15.4214C91.5146 15.9974 91.2806 16.8074 91.2806 17.8514C91.2806 18.9194 91.5146 19.7534 91.9826 20.3534C92.4626 20.9414 93.1286 21.2354 93.9806 21.2354ZM101.541 22.4054C101.325 22.4054 101.145 22.3454 101.001 22.2254C100.869 22.0934 100.803 21.9134 100.803 21.6854V14.0894C100.803 13.8614 100.869 13.6874 101.001 13.5674C101.145 13.4354 101.325 13.3694 101.541 13.3694C101.757 13.3694 101.931 13.4354 102.063 13.5674C102.195 13.6874 102.261 13.8614 102.261 14.0894V21.6854C102.261 21.9254 102.195 22.1054 102.063 22.2254C101.931 22.3454 101.757 22.4054 101.541 22.4054ZM101.541 11.4794C101.253 11.4794 101.019 11.3954 100.839 11.2274C100.659 11.0594 100.569 10.8374 100.569 10.5614C100.569 10.2974 100.659 10.0814 100.839 9.91343C101.019 9.74543 101.253 9.66143 101.541 9.66143C101.829 9.66143 102.063 9.74543 102.243 9.91343C102.423 10.0814 102.513 10.2974 102.513 10.5614C102.513 10.8374 102.423 11.0594 102.243 11.2274C102.063 11.3954 101.829 11.4794 101.541 11.4794ZM109.177 21.2534C109.597 21.2894 109.807 21.4814 109.807 21.8294C109.807 22.0334 109.729 22.1894 109.573 22.2974C109.429 22.3934 109.207 22.4294 108.907 22.4054L108.421 22.3694C107.461 22.2974 106.753 22.0094 106.297 21.5054C105.841 21.0014 105.613 20.2394 105.613 19.2194V14.7014H104.407C104.203 14.7014 104.041 14.6534 103.921 14.5574C103.813 14.4494 103.759 14.3114 103.759 14.1434C103.759 13.9634 103.813 13.8194 103.921 13.7114C104.041 13.6034 104.203 13.5494 104.407 13.5494H105.613V11.5154C105.613 11.2874 105.679 11.1134 105.811 10.9934C105.943 10.8614 106.123 10.7954 106.351 10.7954C106.567 10.7954 106.741 10.8614 106.873 10.9934C107.005 11.1134 107.071 11.2874 107.071 11.5154V13.5494H109.069C109.261 13.5494 109.411 13.6034 109.519 13.7114C109.639 13.8194 109.699 13.9634 109.699 14.1434C109.699 14.3114 109.639 14.4494 109.519 14.5574C109.411 14.6534 109.261 14.7014 109.069 14.7014H107.071V19.2914C107.071 19.9514 107.203 20.4314 107.467 20.7314C107.743 21.0194 108.151 21.1814 108.691 21.2174L109.177 21.2534ZM114.827 13.3334C117.023 13.3334 118.121 14.4854 118.121 16.7894V21.6854C118.121 21.9014 118.055 22.0754 117.923 22.2074C117.803 22.3394 117.635 22.4054 117.419 22.4054C117.203 22.4054 117.029 22.3394 116.897 22.2074C116.765 22.0754 116.699 21.9014 116.699 21.6854V20.8214C116.471 21.3374 116.123 21.7394 115.655 22.0274C115.187 22.3034 114.647 22.4414 114.035 22.4414C113.471 22.4414 112.949 22.3274 112.469 22.0994C112.001 21.8714 111.629 21.5534 111.353 21.1454C111.077 20.7374 110.939 20.2874 110.939 19.7954C110.939 19.1354 111.107 18.6254 111.443 18.2654C111.779 17.8934 112.331 17.6294 113.099 17.4734C113.867 17.3054 114.935 17.2214 116.303 17.2214H116.699V16.6274C116.699 15.9074 116.549 15.3794 116.249 15.0434C115.961 14.7074 115.487 14.5394 114.827 14.5394C114.011 14.5394 113.183 14.7614 112.343 15.2054C112.019 15.4094 111.791 15.5114 111.659 15.5114C111.515 15.5114 111.395 15.4574 111.299 15.3494C111.203 15.2414 111.155 15.1034 111.155 14.9354C111.155 14.7674 111.203 14.6234 111.299 14.5034C111.407 14.3714 111.575 14.2394 111.803 14.1074C112.223 13.8674 112.697 13.6814 113.225 13.5494C113.765 13.4054 114.299 13.3334 114.827 13.3334ZM114.233 21.2894C114.953 21.2894 115.541 21.0494 115.997 20.5694C116.465 20.0774 116.699 19.4474 116.699 18.6794V18.1574H116.375C115.319 18.1574 114.515 18.2054 113.963 18.3014C113.411 18.3854 113.015 18.5354 112.775 18.7514C112.547 18.9554 112.433 19.2614 112.433 19.6694C112.433 20.1374 112.601 20.5274 112.937 20.8394C113.285 21.1394 113.717 21.2894 114.233 21.2894ZM125.127 13.3694C125.631 13.3334 125.883 13.5374 125.883 13.9814C125.883 14.1734 125.829 14.3294 125.721 14.4494C125.613 14.5574 125.427 14.6234 125.163 14.6474L124.623 14.7014C123.819 14.7734 123.219 15.0614 122.823 15.5654C122.439 16.0574 122.247 16.6394 122.247 17.3114V21.6854C122.247 21.9254 122.181 22.1054 122.049 22.2254C121.917 22.3454 121.743 22.4054 121.527 22.4054C121.311 22.4054 121.131 22.3454 120.987 22.2254C120.855 22.0934 120.789 21.9134 120.789 21.6854V14.0894C120.789 13.8614 120.861 13.6874 121.005 13.5674C121.149 13.4354 121.323 13.3694 121.527 13.3694C121.719 13.3694 121.881 13.4354 122.013 13.5674C122.145 13.6874 122.211 13.8554 122.211 14.0714V15.0794C122.463 14.5514 122.817 14.1494 123.273 13.8734C123.741 13.5974 124.275 13.4354 124.875 13.3874L125.127 13.3694ZM137.374 22.4594C136.174 22.4594 135.136 22.2014 134.26 21.6854C133.384 21.1574 132.706 20.4074 132.226 19.4354C131.758 18.4514 131.524 17.2934 131.524 15.9614C131.524 14.6414 131.758 13.4954 132.226 12.5234C132.706 11.5394 133.384 10.7894 134.26 10.2734C135.136 9.74543 136.174 9.48143 137.374 9.48143C138.178 9.48143 138.934 9.61343 139.642 9.87743C140.362 10.1294 140.986 10.4954 141.514 10.9754C141.706 11.1554 141.802 11.3654 141.802 11.6054C141.802 11.7734 141.754 11.9234 141.658 12.0554C141.562 12.1754 141.448 12.2354 141.316 12.2354C141.172 12.2354 140.998 12.1694 140.794 12.0374C140.182 11.5574 139.624 11.2214 139.12 11.0294C138.628 10.8374 138.058 10.7414 137.41 10.7414C136.018 10.7414 134.944 11.1974 134.188 12.1094C133.444 13.0094 133.072 14.2934 133.072 15.9614C133.072 17.6414 133.444 18.9374 134.188 19.8494C134.944 20.7494 136.018 21.1994 137.41 21.1994C138.046 21.1994 138.616 21.1034 139.12 20.9114C139.624 20.7194 140.182 20.3834 140.794 19.9034C140.998 19.7714 141.172 19.7054 141.316 19.7054C141.448 19.7054 141.562 19.7654 141.658 19.8854C141.754 20.0054 141.802 20.1554 141.802 20.3354C141.802 20.5754 141.706 20.7854 141.514 20.9654C140.986 21.4454 140.362 21.8174 139.642 22.0814C138.934 22.3334 138.178 22.4594 137.374 22.4594ZM144.695 22.4054C144.479 22.4054 144.299 22.3454 144.155 22.2254C144.023 22.0934 143.957 21.9134 143.957 21.6854V10.2554C143.957 10.0274 144.023 9.85343 144.155 9.73343C144.299 9.60143 144.479 9.53543 144.695 9.53543C144.899 9.53543 145.067 9.60143 145.199 9.73343C145.343 9.85343 145.415 10.0274 145.415 10.2554V21.6854C145.415 21.9134 145.343 22.0934 145.199 22.2254C145.067 22.3454 144.899 22.4054 144.695 22.4054ZM148.879 22.4054C148.663 22.4054 148.483 22.3454 148.339 22.2254C148.207 22.0934 148.141 21.9134 148.141 21.6854V14.0894C148.141 13.8614 148.207 13.6874 148.339 13.5674C148.483 13.4354 148.663 13.3694 148.879 13.3694C149.095 13.3694 149.269 13.4354 149.401 13.5674C149.533 13.6874 149.599 13.8614 149.599 14.0894V21.6854C149.599 21.9254 149.533 22.1054 149.401 22.2254C149.269 22.3454 149.095 22.4054 148.879 22.4054ZM148.879 11.4794C148.591 11.4794 148.357 11.3954 148.177 11.2274C147.997 11.0594 147.907 10.8374 147.907 10.5614C147.907 10.2974 147.997 10.0814 148.177 9.91343C148.357 9.74543 148.591 9.66143 148.879 9.66143C149.167 9.66143 149.401 9.74543 149.581 9.91343C149.761 10.0814 149.851 10.2974 149.851 10.5614C149.851 10.8374 149.761 11.0594 149.581 11.2274C149.401 11.3954 149.167 11.4794 148.879 11.4794ZM159.111 20.2814C159.243 20.2814 159.357 20.3354 159.453 20.4434C159.549 20.5514 159.597 20.6894 159.597 20.8574C159.597 21.1574 159.387 21.4334 158.967 21.6854C158.535 21.9374 158.079 22.1294 157.599 22.2614C157.119 22.3814 156.651 22.4414 156.195 22.4414C154.839 22.4414 153.765 22.0394 152.973 21.2354C152.193 20.4314 151.803 19.3214 151.803 17.9054C151.803 17.0054 151.977 16.2134 152.325 15.5294C152.673 14.8334 153.159 14.2934 153.783 13.9094C154.419 13.5254 155.139 13.3334 155.943 13.3334C157.083 13.3334 157.989 13.7054 158.661 14.4494C159.333 15.1934 159.669 16.2014 159.669 17.4734C159.669 17.7134 159.621 17.8874 159.525 17.9954C159.429 18.1034 159.273 18.1574 159.057 18.1574H153.261C153.369 20.2214 154.347 21.2534 156.195 21.2534C156.663 21.2534 157.065 21.1934 157.401 21.0734C157.737 20.9414 158.097 20.7674 158.481 20.5514C158.793 20.3714 159.003 20.2814 159.111 20.2814ZM155.961 14.4674C155.193 14.4674 154.575 14.7074 154.107 15.1874C153.651 15.6674 153.381 16.3454 153.297 17.2214H158.391C158.367 16.3334 158.145 15.6554 157.725 15.1874C157.305 14.7074 156.717 14.4674 155.961 14.4674ZM166.227 13.3334C168.327 13.3334 169.377 14.4914 169.377 16.8074V21.6854C169.377 21.9134 169.311 22.0934 169.179 22.2254C169.059 22.3454 168.885 22.4054 168.657 22.4054C168.429 22.4054 168.249 22.3454 168.117 22.2254C167.985 22.0934 167.919 21.9134 167.919 21.6854V16.8974C167.919 16.0814 167.757 15.4874 167.433 15.1154C167.121 14.7434 166.617 14.5574 165.921 14.5574C165.117 14.5574 164.475 14.8034 163.995 15.2954C163.515 15.7874 163.275 16.4534 163.275 17.2934V21.6854C163.275 21.9134 163.209 22.0934 163.077 22.2254C162.957 22.3454 162.783 22.4054 162.555 22.4054C162.327 22.4054 162.147 22.3454 162.015 22.2254C161.883 22.0934 161.817 21.9134 161.817 21.6854V14.0894C161.817 13.8734 161.883 13.6994 162.015 13.5674C162.147 13.4354 162.327 13.3694 162.555 13.3694C162.771 13.3694 162.939 13.4354 163.059 13.5674C163.191 13.6994 163.257 13.8674 163.257 14.0714V14.9894C163.545 14.4494 163.947 14.0414 164.463 13.7654C164.979 13.4774 165.567 13.3334 166.227 13.3334ZM176.097 21.2534C176.517 21.2894 176.727 21.4814 176.727 21.8294C176.727 22.0334 176.649 22.1894 176.493 22.2974C176.349 22.3934 176.127 22.4294 175.827 22.4054L175.341 22.3694C174.381 22.2974 173.673 22.0094 173.217 21.5054C172.761 21.0014 172.533 20.2394 172.533 19.2194V14.7014H171.327C171.123 14.7014 170.961 14.6534 170.841 14.5574C170.733 14.4494 170.679 14.3114 170.679 14.1434C170.679 13.9634 170.733 13.8194 170.841 13.7114C170.961 13.6034 171.123 13.5494 171.327 13.5494H172.533V11.5154C172.533 11.2874 172.599 11.1134 172.731 10.9934C172.863 10.8614 173.043 10.7954 173.271 10.7954C173.487 10.7954 173.661 10.8614 173.793 10.9934C173.925 11.1134 173.991 11.2874 173.991 11.5154V13.5494H175.989C176.181 13.5494 176.331 13.6034 176.439 13.7114C176.559 13.8194 176.619 13.9634 176.619 14.1434C176.619 14.3114 176.559 14.4494 176.439 14.5574C176.331 14.6534 176.181 14.7014 175.989 14.7014H173.991V19.2914C173.991 19.9514 174.123 20.4314 174.387 20.7314C174.663 21.0194 175.071 21.1814 175.611 21.2174L176.097 21.2534ZM184.95 20.2814C185.082 20.2814 185.196 20.3354 185.292 20.4434C185.388 20.5514 185.436 20.6894 185.436 20.8574C185.436 21.1574 185.226 21.4334 184.806 21.6854C184.374 21.9374 183.918 22.1294 183.438 22.2614C182.958 22.3814 182.49 22.4414 182.034 22.4414C180.678 22.4414 179.604 22.0394 178.812 21.2354C178.032 20.4314 177.642 19.3214 177.642 17.9054C177.642 17.0054 177.816 16.2134 178.164 15.5294C178.512 14.8334 178.998 14.2934 179.622 13.9094C180.258 13.5254 180.978 13.3334 181.782 13.3334C182.922 13.3334 183.828 13.7054 184.5 14.4494C185.172 15.1934 185.508 16.2014 185.508 17.4734C185.508 17.7134 185.46 17.8874 185.364 17.9954C185.268 18.1034 185.112 18.1574 184.896 18.1574H179.1C179.208 20.2214 180.186 21.2534 182.034 21.2534C182.502 21.2534 182.904 21.1934 183.24 21.0734C183.576 20.9414 183.936 20.7674 184.32 20.5514C184.632 20.3714 184.842 20.2814 184.95 20.2814ZM181.8 14.4674C181.032 14.4674 180.414 14.7074 179.946 15.1874C179.49 15.6674 179.22 16.3454 179.136 17.2214H184.23C184.206 16.3334 183.984 15.6554 183.564 15.1874C183.144 14.7074 182.556 14.4674 181.8 14.4674Z" fill="#0E8750"/>
<rect x="1" y="0.81543" width="245" height="32" rx="9.5" stroke="#DEDEE9"/>
</svg>
