<svg width="253" height="34" viewBox="0 0 253 34" fill="none" xmlns="http://www.w3.org/2000/svg">
<rect x="0.5" y="0.526367" width="252" height="33" rx="10" fill="#DA0175"/>
<path fill-rule="evenodd" clip-rule="evenodd" d="M64.5003 11.6934C64.8685 11.6934 65.167 11.9918 65.167 12.36V16.36H69.167C69.5352 16.36 69.8337 16.6585 69.8337 17.0267C69.8337 17.3949 69.5352 17.6934 69.167 17.6934H65.167V21.6934C65.167 22.0616 64.8685 22.36 64.5003 22.36C64.1321 22.36 63.8337 22.0616 63.8337 21.6934V17.6934H59.8337C59.4655 17.6934 59.167 17.3949 59.167 17.0267C59.167 16.6585 59.4655 16.36 59.8337 16.36H63.8337V12.36C63.8337 11.9918 64.1321 11.6934 64.5003 11.6934Z" fill="#F8F8F9"/>
<path d="M87.552 9.74637C87.768 9.74637 87.936 9.81837 88.056 9.96237C88.176 10.0944 88.236 10.2744 88.236 10.5024V21.8604C88.236 22.0884 88.17 22.2744 88.038 22.4184C87.918 22.5504 87.744 22.6164 87.516 22.6164C87.288 22.6164 87.09 22.5144 86.922 22.3104L79.452 12.3204V21.8604C79.452 22.0884 79.386 22.2744 79.254 22.4184C79.134 22.5504 78.966 22.6164 78.75 22.6164C78.534 22.6164 78.366 22.5504 78.246 22.4184C78.126 22.2744 78.066 22.0884 78.066 21.8604V10.5024C78.066 10.2744 78.126 10.0944 78.246 9.96237C78.378 9.81837 78.558 9.74637 78.786 9.74637C79.026 9.74637 79.23 9.84837 79.398 10.0524L86.85 20.0424V10.5024C86.85 10.2744 86.91 10.0944 87.03 9.96237C87.162 9.81837 87.336 9.74637 87.552 9.74637ZM94.7926 22.6524C93.9646 22.6524 93.2326 22.4664 92.5966 22.0944C91.9726 21.7224 91.4866 21.1944 91.1386 20.5104C90.8026 19.8144 90.6346 19.0104 90.6346 18.0984C90.6346 17.1864 90.8026 16.3884 91.1386 15.7044C91.4866 15.0084 91.9726 14.4744 92.5966 14.1024C93.2326 13.7304 93.9646 13.5444 94.7926 13.5444C95.6206 13.5444 96.3526 13.7304 96.9886 14.1024C97.6246 14.4744 98.1106 15.0084 98.4466 15.7044C98.7946 16.3884 98.9686 17.1864 98.9686 18.0984C98.9686 19.0104 98.7946 19.8144 98.4466 20.5104C98.1106 21.1944 97.6246 21.7224 96.9886 22.0944C96.3526 22.4664 95.6206 22.6524 94.7926 22.6524ZM94.7926 21.4464C95.6566 21.4464 96.3166 21.1644 96.7726 20.6004C97.2406 20.0244 97.4746 19.1904 97.4746 18.0984C97.4746 17.0304 97.2406 16.2084 96.7726 15.6324C96.3046 15.0444 95.6446 14.7504 94.7926 14.7504C93.9406 14.7504 93.2806 15.0444 92.8126 15.6324C92.3446 16.2084 92.1106 17.0304 92.1106 18.0984C92.1106 19.1784 92.3386 20.0064 92.7946 20.5824C93.2626 21.1584 93.9286 21.4464 94.7926 21.4464ZM107.354 14.0304C107.486 13.7424 107.696 13.5984 107.984 13.5984C108.164 13.5984 108.326 13.6584 108.47 13.7784C108.614 13.8984 108.686 14.0484 108.686 14.2284C108.686 14.3364 108.662 14.4324 108.614 14.5164L105.104 22.0764C105.032 22.2324 104.924 22.3584 104.78 22.4544C104.636 22.5384 104.48 22.5804 104.312 22.5804C104.156 22.5804 104.006 22.5384 103.862 22.4544C103.718 22.3584 103.604 22.2324 103.52 22.0764L100.028 14.5164C99.9795 14.4324 99.9555 14.3424 99.9555 14.2464C99.9555 14.0664 100.034 13.9104 100.19 13.7784C100.358 13.6464 100.538 13.5804 100.73 13.5804C100.85 13.5804 100.964 13.6164 101.072 13.6884C101.192 13.7604 101.282 13.8624 101.342 13.9944L104.348 20.7444L107.354 14.0304ZM113.705 13.5444C115.901 13.5444 116.999 14.6964 116.999 17.0004V21.8964C116.999 22.1124 116.933 22.2864 116.801 22.4184C116.681 22.5504 116.513 22.6164 116.297 22.6164C116.081 22.6164 115.907 22.5504 115.775 22.4184C115.643 22.2864 115.577 22.1124 115.577 21.8964V21.0324C115.349 21.5484 115.001 21.9504 114.533 22.2384C114.065 22.5144 113.525 22.6524 112.913 22.6524C112.349 22.6524 111.827 22.5384 111.347 22.3104C110.879 22.0824 110.507 21.7644 110.231 21.3564C109.955 20.9484 109.817 20.4984 109.817 20.0064C109.817 19.3464 109.985 18.8364 110.321 18.4764C110.657 18.1044 111.209 17.8404 111.977 17.6844C112.745 17.5164 113.813 17.4324 115.181 17.4324H115.577V16.8384C115.577 16.1184 115.427 15.5904 115.127 15.2544C114.839 14.9184 114.365 14.7504 113.705 14.7504C112.889 14.7504 112.061 14.9724 111.221 15.4164C110.897 15.6204 110.669 15.7224 110.537 15.7224C110.393 15.7224 110.273 15.6684 110.177 15.5604C110.081 15.4524 110.033 15.3144 110.033 15.1464C110.033 14.9784 110.081 14.8344 110.177 14.7144C110.285 14.5824 110.453 14.4504 110.681 14.3184C111.101 14.0784 111.575 13.8924 112.103 13.7604C112.643 13.6164 113.177 13.5444 113.705 13.5444ZM113.111 21.5004C113.831 21.5004 114.419 21.2604 114.875 20.7804C115.343 20.2884 115.577 19.6584 115.577 18.8904V18.3684H115.253C114.197 18.3684 113.393 18.4164 112.841 18.5124C112.289 18.5964 111.893 18.7464 111.653 18.9624C111.425 19.1664 111.311 19.4724 111.311 19.8804C111.311 20.3484 111.479 20.7384 111.815 21.0504C112.163 21.3504 112.595 21.5004 113.111 21.5004ZM127.927 22.6524C127.111 22.6524 126.385 22.4664 125.749 22.0944C125.125 21.7224 124.639 21.1944 124.291 20.5104C123.955 19.8264 123.787 19.0344 123.787 18.1344C123.787 17.2344 123.961 16.4364 124.309 15.7404C124.669 15.0444 125.167 14.5044 125.803 14.1204C126.439 13.7364 127.171 13.5444 127.999 13.5444C128.455 13.5444 128.905 13.6104 129.349 13.7424C129.805 13.8624 130.201 14.0424 130.537 14.2824C130.753 14.4264 130.903 14.5704 130.987 14.7144C131.083 14.8464 131.131 14.9964 131.131 15.1644C131.131 15.3324 131.083 15.4704 130.987 15.5784C130.903 15.6864 130.789 15.7404 130.645 15.7404C130.561 15.7404 130.471 15.7164 130.375 15.6684C130.279 15.6204 130.195 15.5724 130.123 15.5244C130.063 15.4764 130.021 15.4464 129.997 15.4344C129.685 15.2304 129.385 15.0684 129.097 14.9484C128.821 14.8284 128.479 14.7684 128.071 14.7684C127.195 14.7684 126.511 15.0684 126.019 15.6684C125.539 16.2564 125.299 17.0784 125.299 18.1344C125.299 19.1904 125.539 20.0064 126.019 20.5824C126.511 21.1584 127.195 21.4464 128.071 21.4464C128.479 21.4464 128.827 21.3864 129.115 21.2664C129.415 21.1464 129.715 20.9844 130.015 20.7804C130.147 20.6964 130.273 20.6244 130.393 20.5644C130.513 20.5044 130.615 20.4744 130.699 20.4744C130.831 20.4744 130.939 20.5284 131.023 20.6364C131.119 20.7444 131.167 20.8824 131.167 21.0504C131.167 21.2064 131.125 21.3504 131.041 21.4824C130.957 21.6024 130.801 21.7404 130.573 21.8964C130.237 22.1244 129.829 22.3104 129.349 22.4544C128.881 22.5864 128.407 22.6524 127.927 22.6524ZM136.558 22.6524C135.73 22.6524 134.998 22.4664 134.362 22.0944C133.738 21.7224 133.252 21.1944 132.904 20.5104C132.568 19.8144 132.4 19.0104 132.4 18.0984C132.4 17.1864 132.568 16.3884 132.904 15.7044C133.252 15.0084 133.738 14.4744 134.362 14.1024C134.998 13.7304 135.73 13.5444 136.558 13.5444C137.386 13.5444 138.118 13.7304 138.754 14.1024C139.39 14.4744 139.876 15.0084 140.212 15.7044C140.56 16.3884 140.734 17.1864 140.734 18.0984C140.734 19.0104 140.56 19.8144 140.212 20.5104C139.876 21.1944 139.39 21.7224 138.754 22.0944C138.118 22.4664 137.386 22.6524 136.558 22.6524ZM136.558 21.4464C137.422 21.4464 138.082 21.1644 138.538 20.6004C139.006 20.0244 139.24 19.1904 139.24 18.0984C139.24 17.0304 139.006 16.2084 138.538 15.6324C138.07 15.0444 137.41 14.7504 136.558 14.7504C135.706 14.7504 135.046 15.0444 134.578 15.6324C134.11 16.2084 133.876 17.0304 133.876 18.0984C133.876 19.1784 134.104 20.0064 134.56 20.5824C135.028 21.1584 135.694 21.4464 136.558 21.4464ZM147.317 13.5444C148.085 13.5444 148.763 13.7304 149.351 14.1024C149.939 14.4744 150.395 15.0024 150.719 15.6864C151.043 16.3704 151.205 17.1624 151.205 18.0624C151.205 18.9744 151.043 19.7784 150.719 20.4744C150.395 21.1584 149.939 21.6924 149.351 22.0764C148.763 22.4604 148.085 22.6524 147.317 22.6524C146.633 22.6524 146.033 22.5024 145.517 22.2024C145.013 21.9024 144.629 21.4764 144.365 20.9244V21.8964C144.365 22.1124 144.299 22.2864 144.167 22.4184C144.047 22.5504 143.873 22.6164 143.645 22.6164C143.417 22.6164 143.237 22.5504 143.105 22.4184C142.973 22.2864 142.907 22.1124 142.907 21.8964V10.4484C142.907 10.2444 142.973 10.0764 143.105 9.94437C143.237 9.81237 143.417 9.74637 143.645 9.74637C143.873 9.74637 144.047 9.81237 144.167 9.94437C144.299 10.0644 144.365 10.2324 144.365 10.4484V15.2724C144.629 14.7204 145.013 14.2944 145.517 13.9944C146.033 13.6944 146.633 13.5444 147.317 13.5444ZM147.029 21.4464C147.881 21.4464 148.541 21.1524 149.009 20.5644C149.477 19.9644 149.711 19.1304 149.711 18.0624C149.711 17.0184 149.477 16.2084 149.009 15.6324C148.541 15.0564 147.881 14.7684 147.029 14.7684C146.177 14.7684 145.517 15.0564 145.049 15.6324C144.593 16.2084 144.365 17.0304 144.365 18.0984C144.365 19.1664 144.593 19.9944 145.049 20.5824C145.517 21.1584 146.177 21.4464 147.029 21.4464ZM157.721 13.5804C158.225 13.5444 158.477 13.7484 158.477 14.1924C158.477 14.3844 158.423 14.5404 158.315 14.6604C158.207 14.7684 158.021 14.8344 157.757 14.8584L157.217 14.9124C156.413 14.9844 155.813 15.2724 155.417 15.7764C155.033 16.2684 154.841 16.8504 154.841 17.5224V21.8964C154.841 22.1364 154.775 22.3164 154.643 22.4364C154.511 22.5564 154.337 22.6164 154.121 22.6164C153.905 22.6164 153.725 22.5564 153.581 22.4364C153.449 22.3044 153.383 22.1244 153.383 21.8964V14.3004C153.383 14.0724 153.455 13.8984 153.599 13.7784C153.743 13.6464 153.917 13.5804 154.121 13.5804C154.313 13.5804 154.475 13.6464 154.607 13.7784C154.739 13.8984 154.805 14.0664 154.805 14.2824V15.2904C155.057 14.7624 155.411 14.3604 155.867 14.0844C156.335 13.8084 156.869 13.6464 157.469 13.5984L157.721 13.5804ZM163.241 13.5444C165.437 13.5444 166.535 14.6964 166.535 17.0004V21.8964C166.535 22.1124 166.469 22.2864 166.337 22.4184C166.217 22.5504 166.049 22.6164 165.833 22.6164C165.617 22.6164 165.443 22.5504 165.311 22.4184C165.179 22.2864 165.113 22.1124 165.113 21.8964V21.0324C164.885 21.5484 164.537 21.9504 164.069 22.2384C163.601 22.5144 163.061 22.6524 162.449 22.6524C161.885 22.6524 161.363 22.5384 160.883 22.3104C160.415 22.0824 160.043 21.7644 159.767 21.3564C159.491 20.9484 159.353 20.4984 159.353 20.0064C159.353 19.3464 159.521 18.8364 159.857 18.4764C160.193 18.1044 160.745 17.8404 161.513 17.6844C162.281 17.5164 163.349 17.4324 164.717 17.4324H165.113V16.8384C165.113 16.1184 164.963 15.5904 164.663 15.2544C164.375 14.9184 163.901 14.7504 163.241 14.7504C162.425 14.7504 161.597 14.9724 160.757 15.4164C160.433 15.6204 160.205 15.7224 160.073 15.7224C159.929 15.7224 159.809 15.6684 159.713 15.5604C159.617 15.4524 159.569 15.3144 159.569 15.1464C159.569 14.9784 159.617 14.8344 159.713 14.7144C159.821 14.5824 159.989 14.4504 160.217 14.3184C160.637 14.0784 161.111 13.8924 161.639 13.7604C162.179 13.6164 162.713 13.5444 163.241 13.5444ZM162.647 21.5004C163.367 21.5004 163.955 21.2604 164.411 20.7804C164.879 20.2884 165.113 19.6584 165.113 18.8904V18.3684H164.789C163.733 18.3684 162.929 18.4164 162.377 18.5124C161.825 18.5964 161.429 18.7464 161.189 18.9624C160.961 19.1664 160.847 19.4724 160.847 19.8804C160.847 20.3484 161.015 20.7384 161.351 21.0504C161.699 21.3504 162.131 21.5004 162.647 21.5004ZM173.614 13.5444C175.714 13.5444 176.764 14.7024 176.764 17.0184V21.8964C176.764 22.1244 176.698 22.3044 176.566 22.4364C176.446 22.5564 176.272 22.6164 176.044 22.6164C175.816 22.6164 175.636 22.5564 175.504 22.4364C175.372 22.3044 175.306 22.1244 175.306 21.8964V17.1084C175.306 16.2924 175.144 15.6984 174.82 15.3264C174.508 14.9544 174.004 14.7684 173.308 14.7684C172.504 14.7684 171.862 15.0144 171.382 15.5064C170.902 15.9984 170.662 16.6644 170.662 17.5044V21.8964C170.662 22.1244 170.596 22.3044 170.464 22.4364C170.344 22.5564 170.17 22.6164 169.942 22.6164C169.714 22.6164 169.534 22.5564 169.402 22.4364C169.27 22.3044 169.204 22.1244 169.204 21.8964V14.3004C169.204 14.0844 169.27 13.9104 169.402 13.7784C169.534 13.6464 169.714 13.5804 169.942 13.5804C170.158 13.5804 170.326 13.6464 170.446 13.7784C170.578 13.9104 170.644 14.0784 170.644 14.2824V15.2004C170.932 14.6604 171.334 14.2524 171.85 13.9764C172.366 13.6884 172.954 13.5444 173.614 13.5444ZM185.824 20.4744C185.956 20.4744 186.064 20.5284 186.148 20.6364C186.244 20.7444 186.292 20.8824 186.292 21.0504C186.292 21.2064 186.25 21.3504 186.166 21.4824C186.082 21.6024 185.926 21.7404 185.698 21.8964C185.398 22.1004 185.044 22.2684 184.636 22.4004C184.24 22.5324 183.826 22.6104 183.394 22.6344L183.322 23.3184C183.466 23.2824 183.622 23.2644 183.79 23.2644C184.162 23.2644 184.474 23.3664 184.726 23.5704C184.99 23.7864 185.122 24.0984 185.122 24.5064C185.122 24.9504 184.936 25.3104 184.564 25.5864C184.192 25.8624 183.67 26.0004 182.998 26.0004C182.566 26.0004 182.158 25.9284 181.774 25.7844C181.678 25.7484 181.6 25.6884 181.54 25.6044C181.492 25.5324 181.468 25.4544 181.468 25.3704C181.468 25.2624 181.504 25.1664 181.576 25.0824C181.648 25.0104 181.744 24.9744 181.864 24.9744C181.924 24.9744 181.972 24.9804 182.008 24.9924C182.332 25.0884 182.668 25.1364 183.016 25.1364C183.352 25.1364 183.604 25.0824 183.772 24.9744C183.952 24.8664 184.042 24.7104 184.042 24.5064C184.042 24.3504 183.994 24.2304 183.898 24.1464C183.802 24.0624 183.664 24.0204 183.484 24.0204C183.352 24.0204 183.184 24.0444 182.98 24.0924C182.776 24.1524 182.65 24.1824 182.602 24.1824C182.506 24.1824 182.416 24.1464 182.332 24.0744C182.26 24.0144 182.23 23.9364 182.242 23.8404L182.386 22.6164C181.33 22.4604 180.484 21.9864 179.848 21.1944C179.224 20.3904 178.912 19.3704 178.912 18.1344C178.912 17.2344 179.086 16.4364 179.434 15.7404C179.794 15.0444 180.292 14.5044 180.928 14.1204C181.564 13.7364 182.296 13.5444 183.124 13.5444C183.58 13.5444 184.03 13.6104 184.474 13.7424C184.93 13.8624 185.326 14.0424 185.662 14.2824C185.878 14.4264 186.028 14.5704 186.112 14.7144C186.208 14.8464 186.256 14.9964 186.256 15.1644C186.256 15.3324 186.208 15.4704 186.112 15.5784C186.028 15.6864 185.914 15.7404 185.77 15.7404C185.686 15.7404 185.596 15.7164 185.5 15.6684C185.404 15.6204 185.32 15.5724 185.248 15.5244C185.188 15.4764 185.146 15.4464 185.122 15.4344C184.81 15.2304 184.51 15.0684 184.222 14.9484C183.946 14.8284 183.604 14.7684 183.196 14.7684C182.32 14.7684 181.636 15.0684 181.144 15.6684C180.664 16.2564 180.424 17.0784 180.424 18.1344C180.424 19.1904 180.664 20.0064 181.144 20.5824C181.636 21.1584 182.32 21.4464 183.196 21.4464C183.604 21.4464 183.952 21.3864 184.24 21.2664C184.54 21.1464 184.84 20.9844 185.14 20.7804C185.272 20.6964 185.398 20.6244 185.518 20.5644C185.638 20.5044 185.74 20.4744 185.824 20.4744ZM191.629 13.5444C193.825 13.5444 194.923 14.6964 194.923 17.0004V21.8964C194.923 22.1124 194.857 22.2864 194.725 22.4184C194.605 22.5504 194.437 22.6164 194.221 22.6164C194.005 22.6164 193.831 22.5504 193.699 22.4184C193.567 22.2864 193.501 22.1124 193.501 21.8964V21.0324C193.273 21.5484 192.925 21.9504 192.457 22.2384C191.989 22.5144 191.449 22.6524 190.837 22.6524C190.273 22.6524 189.751 22.5384 189.271 22.3104C188.803 22.0824 188.431 21.7644 188.155 21.3564C187.879 20.9484 187.741 20.4984 187.741 20.0064C187.741 19.3464 187.909 18.8364 188.245 18.4764C188.581 18.1044 189.133 17.8404 189.901 17.6844C190.669 17.5164 191.737 17.4324 193.105 17.4324H193.501V16.8384C193.501 16.1184 193.351 15.5904 193.051 15.2544C192.763 14.9184 192.289 14.7504 191.629 14.7504C190.813 14.7504 189.985 14.9724 189.145 15.4164C188.821 15.6204 188.593 15.7224 188.461 15.7224C188.317 15.7224 188.197 15.6684 188.101 15.5604C188.005 15.4524 187.957 15.3144 187.957 15.1464C187.957 14.9784 188.005 14.8344 188.101 14.7144C188.209 14.5824 188.377 14.4504 188.605 14.3184C189.025 14.0784 189.499 13.8924 190.027 13.7604C190.567 13.6164 191.101 13.5444 191.629 13.5444ZM191.035 21.5004C191.755 21.5004 192.343 21.2604 192.799 20.7804C193.267 20.2884 193.501 19.6584 193.501 18.8904V18.3684H193.177C192.121 18.3684 191.317 18.4164 190.765 18.5124C190.213 18.5964 189.817 18.7464 189.577 18.9624C189.349 19.1664 189.235 19.4724 189.235 19.8804C189.235 20.3484 189.403 20.7384 189.739 21.0504C190.087 21.3504 190.519 21.5004 191.035 21.5004Z" fill="#F8F8F9"/>
</svg>
