<svg width="26" height="29" viewBox="0 0 26 29" fill="none" xmlns="http://www.w3.org/2000/svg">
<g clip-path="url(#clip0_76605_14656)">
<path d="M7.25 3.8252L8.09115 13.4985C8.18102 14.532 9.04622 15.3252 10.0836 15.3252H14.9164C15.9538 15.3252 16.819 14.532 16.9088 13.4985L17.75 3.8252" stroke="#AE1100" stroke-width="1.5" stroke-linecap="round" stroke-linejoin="round"/>
<path d="M10.25 3.5752V2.8252C10.25 1.72063 11.1454 0.825195 12.25 0.825195H12.75C13.8546 0.825195 14.75 1.72063 14.75 2.8252V3.5752" stroke="#AE1100" stroke-width="1.5" stroke-linecap="round" stroke-linejoin="round"/>
<path d="M5.5 3.8252H19.5" stroke="#AE1100" stroke-width="1.5" stroke-linecap="round" stroke-linejoin="round"/>
</g>
<path d="M1.564 28.0752C1.436 28.0752 1.33467 28.0405 1.26 27.9712C1.19067 27.8965 1.156 27.7979 1.156 27.6752V22.8352C1.156 22.7125 1.19067 22.6165 1.26 22.5472C1.33467 22.4725 1.436 22.4352 1.564 22.4352H4.508C4.63067 22.4352 4.724 22.4645 4.788 22.5232C4.85733 22.5819 4.892 22.6645 4.892 22.7712C4.892 22.8779 4.85733 22.9605 4.788 23.0192C4.724 23.0725 4.63067 23.0992 4.508 23.0992H1.964V24.8752H4.348C4.47067 24.8752 4.564 24.9045 4.628 24.9632C4.69733 25.0219 4.732 25.1045 4.732 25.2112C4.732 25.3179 4.69733 25.4005 4.628 25.4592C4.564 25.5179 4.47067 25.5472 4.348 25.5472H1.964V27.4112H4.508C4.764 27.4112 4.892 27.5205 4.892 27.7392C4.892 27.8459 4.85733 27.9285 4.788 27.9872C4.724 28.0459 4.63067 28.0752 4.508 28.0752H1.564ZM9.02769 27.4672C9.10769 27.5472 9.14769 27.6405 9.14769 27.7472C9.14769 27.8485 9.11035 27.9365 9.03569 28.0112C8.96635 28.0805 8.88102 28.1152 8.77969 28.1152C8.67835 28.1152 8.58502 28.0699 8.49969 27.9792L7.27569 26.6032L6.05969 27.9792C5.97435 28.0699 5.88102 28.1152 5.77969 28.1152C5.67835 28.1152 5.59035 28.0779 5.51569 28.0032C5.44635 27.9285 5.41169 27.8405 5.41169 27.7392C5.41169 27.6379 5.44902 27.5472 5.52369 27.4672L6.78769 26.0752L5.58769 24.7392C5.50769 24.6485 5.46769 24.5579 5.46769 24.4672C5.46769 24.3659 5.50502 24.2805 5.57969 24.2112C5.65435 24.1365 5.73969 24.0992 5.83569 24.0992C5.93702 24.0992 6.03035 24.1445 6.11569 24.2352L7.27569 25.5472L8.43569 24.2352C8.52102 24.1445 8.61702 24.0992 8.72369 24.0992C8.81969 24.0992 8.90502 24.1365 8.97969 24.2112C9.05435 24.2805 9.09169 24.3659 9.09169 24.4672C9.09169 24.5685 9.05169 24.6592 8.97169 24.7392L7.77169 26.0752L9.02769 27.4672ZM11.5367 28.1312C11.158 28.1312 10.8247 28.0485 10.5367 27.8832C10.254 27.7179 10.0327 27.4832 9.87269 27.1792C9.71802 26.8752 9.64069 26.5232 9.64069 26.1232C9.64069 25.7179 9.72069 25.3605 9.88069 25.0512C10.046 24.7419 10.2754 24.5019 10.5687 24.3312C10.862 24.1605 11.198 24.0752 11.5767 24.0752C11.7794 24.0752 11.982 24.1045 12.1847 24.1632C12.3927 24.2219 12.5767 24.3019 12.7367 24.4032C12.9074 24.5205 12.9927 24.6565 12.9927 24.8112C12.9927 24.9019 12.9687 24.9792 12.9207 25.0432C12.8727 25.1019 12.8114 25.1312 12.7367 25.1312C12.6887 25.1312 12.6407 25.1205 12.5927 25.0992C12.5447 25.0725 12.4834 25.0352 12.4087 24.9872C12.2754 24.9019 12.15 24.8379 12.0327 24.7952C11.9207 24.7472 11.7847 24.7232 11.6247 24.7232C11.262 24.7232 10.9794 24.8459 10.7767 25.0912C10.5794 25.3365 10.4807 25.6779 10.4807 26.1152C10.4807 26.5525 10.5794 26.8912 10.7767 27.1312C10.974 27.3659 11.254 27.4832 11.6167 27.4832C11.7767 27.4832 11.918 27.4592 12.0407 27.4112C12.1634 27.3632 12.2887 27.2992 12.4167 27.2192C12.4754 27.1819 12.534 27.1499 12.5927 27.1232C12.6514 27.0965 12.7047 27.0832 12.7527 27.0832C12.8274 27.0832 12.8887 27.1152 12.9367 27.1792C12.9847 27.2379 13.0087 27.3125 13.0087 27.4032C13.0087 27.4779 12.9874 27.5472 12.9447 27.6112C12.9074 27.6699 12.8407 27.7312 12.7447 27.7952C12.5847 27.9019 12.398 27.9845 12.1847 28.0432C11.9714 28.1019 11.7554 28.1312 11.5367 28.1312ZM14.1399 28.1152C14.0225 28.1152 13.9239 28.0832 13.8439 28.0192C13.7692 27.9552 13.7319 27.8592 13.7319 27.7312V22.7872C13.7319 22.6592 13.7692 22.5632 13.8439 22.4992C13.9239 22.4299 14.0225 22.3952 14.1399 22.3952C14.2572 22.3952 14.3532 22.4299 14.4279 22.4992C14.5025 22.5632 14.5399 22.6592 14.5399 22.7872V27.7312C14.5399 27.8592 14.5025 27.9552 14.4279 28.0192C14.3532 28.0832 14.2572 28.1152 14.1399 28.1152ZM18.6934 24.0912C18.816 24.0912 18.912 24.1259 18.9814 24.1952C19.056 24.2645 19.0934 24.3605 19.0934 24.4832V27.7392C19.0934 27.8512 19.056 27.9419 18.9814 28.0112C18.9067 28.0805 18.808 28.1152 18.6854 28.1152C18.5734 28.1152 18.4827 28.0832 18.4134 28.0192C18.344 27.9499 18.3094 27.8592 18.3094 27.7472V27.4432C18.1867 27.6672 18.016 27.8379 17.7974 27.9552C17.584 28.0725 17.344 28.1312 17.0774 28.1312C16.128 28.1312 15.6534 27.6085 15.6534 26.5632V24.4832C15.6534 24.3605 15.688 24.2645 15.7574 24.1952C15.832 24.1259 15.9334 24.0912 16.0614 24.0912C16.184 24.0912 16.28 24.1259 16.3494 24.1952C16.424 24.2645 16.4614 24.3605 16.4614 24.4832V26.5552C16.4614 26.8699 16.5254 27.1019 16.6534 27.2512C16.7814 27.4005 16.9787 27.4752 17.2454 27.4752C17.56 27.4752 17.8107 27.3739 17.9974 27.1712C18.1894 26.9685 18.2854 26.6992 18.2854 26.3632V24.4832C18.2854 24.3659 18.3227 24.2725 18.3974 24.2032C18.472 24.1285 18.5707 24.0912 18.6934 24.0912ZM20.6321 28.1152C20.5147 28.1152 20.4161 28.0832 20.3361 28.0192C20.2614 27.9552 20.2241 27.8592 20.2241 27.7312V24.4832C20.2241 24.3552 20.2614 24.2592 20.3361 24.1952C20.4161 24.1259 20.5147 24.0912 20.6321 24.0912C20.7494 24.0912 20.8454 24.1259 20.9201 24.1952C20.9947 24.2592 21.0321 24.3552 21.0321 24.4832V27.7312C21.0321 27.8592 20.9947 27.9552 20.9201 28.0192C20.8454 28.0832 20.7494 28.1152 20.6321 28.1152ZM20.6321 23.3072C20.4774 23.3072 20.3547 23.2645 20.2641 23.1792C20.1734 23.0939 20.1281 22.9819 20.1281 22.8432C20.1281 22.7045 20.1734 22.5952 20.2641 22.5152C20.3547 22.4299 20.4774 22.3872 20.6321 22.3872C20.7814 22.3872 20.9014 22.4299 20.9921 22.5152C21.0881 22.5952 21.1361 22.7045 21.1361 22.8432C21.1361 22.9819 21.0907 23.0939 21.0001 23.1792C20.9094 23.2645 20.7867 23.3072 20.6321 23.3072ZM24.2096 24.0912C24.4656 24.0752 24.5936 24.1845 24.5936 24.4192C24.5936 24.5365 24.5642 24.6245 24.5056 24.6832C24.4469 24.7419 24.3456 24.7765 24.2016 24.7872L23.9616 24.8112C23.6256 24.8432 23.3749 24.9605 23.2096 25.1632C23.0496 25.3659 22.9696 25.6112 22.9696 25.8992V27.7312C22.9696 27.8592 22.9322 27.9552 22.8576 28.0192C22.7829 28.0832 22.6869 28.1152 22.5696 28.1152C22.4522 28.1152 22.3536 28.0832 22.2736 28.0192C22.1989 27.9552 22.1616 27.8592 22.1616 27.7312V24.4752C22.1616 24.3525 22.1989 24.2592 22.2736 24.1952C22.3536 24.1259 22.4522 24.0912 22.5696 24.0912C22.6762 24.0912 22.7642 24.1259 22.8336 24.1952C22.9082 24.2592 22.9456 24.3499 22.9456 24.4672V24.8512C23.0522 24.6165 23.2069 24.4379 23.4096 24.3152C23.6122 24.1925 23.8416 24.1205 24.0976 24.0992L24.2096 24.0912Z" fill="#AE1100"/>
<defs>
<clipPath id="clip0_76605_14656">
<rect width="17" height="16" fill="white" transform="translate(4.5 0.0751953)"/>
</clipPath>
</defs>
</svg>
