<svg width="764" height="515" viewBox="0 0 764 515" fill="none" xmlns="http://www.w3.org/2000/svg">
<path d="M152.29 443.4V463H149.294L138.486 449.728V463H134.874V443.4H137.87L148.678 456.672V443.4H152.29ZM171.262 455.608C171.262 455.851 171.243 456.196 171.206 456.644H159.474C159.679 457.745 160.211 458.623 161.07 459.276C161.947 459.911 163.03 460.228 164.318 460.228C165.961 460.228 167.314 459.687 168.378 458.604L170.254 460.76C169.582 461.563 168.733 462.169 167.706 462.58C166.679 462.991 165.522 463.196 164.234 463.196C162.591 463.196 161.145 462.869 159.894 462.216C158.643 461.563 157.673 460.657 156.982 459.5C156.31 458.324 155.974 456.999 155.974 455.524C155.974 454.068 156.301 452.761 156.954 451.604C157.626 450.428 158.55 449.513 159.726 448.86C160.902 448.207 162.227 447.88 163.702 447.88C165.158 447.88 166.455 448.207 167.594 448.86C168.751 449.495 169.647 450.4 170.282 451.576C170.935 452.733 171.262 454.077 171.262 455.608ZM163.702 450.68C162.582 450.68 161.63 451.016 160.846 451.688C160.081 452.341 159.614 453.219 159.446 454.32H167.93C167.781 453.237 167.323 452.36 166.558 451.688C165.793 451.016 164.841 450.68 163.702 450.68ZM183.108 447.88C184.993 447.88 186.505 448.431 187.644 449.532C188.783 450.633 189.352 452.267 189.352 454.432V463H185.852V454.88C185.852 453.573 185.544 452.593 184.928 451.94C184.312 451.268 183.435 450.932 182.296 450.932C181.008 450.932 179.991 451.324 179.244 452.108C178.497 452.873 178.124 453.984 178.124 455.44V463H174.624V448.048H177.956V449.98C178.535 449.289 179.263 448.767 180.14 448.412C181.017 448.057 182.007 447.88 183.108 447.88ZM202.276 447.88C204.161 447.88 205.673 448.431 206.812 449.532C207.951 450.633 208.52 452.267 208.52 454.432V463H205.02V454.88C205.02 453.573 204.712 452.593 204.096 451.94C203.48 451.268 202.603 450.932 201.464 450.932C200.176 450.932 199.159 451.324 198.412 452.108C197.665 452.873 197.292 453.984 197.292 455.44V463H193.792V442.224H197.292V449.784C197.871 449.168 198.58 448.701 199.42 448.384C200.279 448.048 201.231 447.88 202.276 447.88ZM227.436 448.048V463H224.104V461.096C223.544 461.768 222.844 462.291 222.004 462.664C221.164 463.019 220.259 463.196 219.288 463.196C217.291 463.196 215.713 462.645 214.556 461.544C213.417 460.424 212.848 458.772 212.848 456.588V448.048H216.348V456.112C216.348 457.456 216.647 458.464 217.244 459.136C217.86 459.789 218.728 460.116 219.848 460.116C221.099 460.116 222.088 459.733 222.816 458.968C223.563 458.184 223.936 457.064 223.936 455.608V448.048H227.436ZM250.891 447.88C252.776 447.88 254.269 448.431 255.371 449.532C256.472 450.615 257.023 452.248 257.023 454.432V463H253.523V454.88C253.523 453.573 253.233 452.593 252.655 451.94C252.076 451.268 251.245 450.932 250.163 450.932C248.987 450.932 248.044 451.324 247.335 452.108C246.625 452.873 246.271 453.975 246.271 455.412V463H242.771V454.88C242.771 453.573 242.481 452.593 241.903 451.94C241.324 451.268 240.493 450.932 239.411 450.932C238.216 450.932 237.264 451.315 236.555 452.08C235.864 452.845 235.519 453.956 235.519 455.412V463H232.019V448.048H235.351V449.952C235.911 449.28 236.611 448.767 237.451 448.412C238.291 448.057 239.224 447.88 240.251 447.88C241.371 447.88 242.36 448.095 243.219 448.524C244.096 448.935 244.787 449.551 245.291 450.372C245.907 449.588 246.7 448.981 247.671 448.552C248.641 448.104 249.715 447.88 250.891 447.88ZM272.566 450.232C273.574 448.664 275.347 447.88 277.886 447.88V451.212C277.587 451.156 277.316 451.128 277.074 451.128C275.711 451.128 274.647 451.529 273.882 452.332C273.116 453.116 272.734 454.255 272.734 455.748V463H269.234V448.048H272.566V450.232ZM294.774 455.608C294.774 455.851 294.755 456.196 294.718 456.644H282.986C283.191 457.745 283.723 458.623 284.582 459.276C285.459 459.911 286.542 460.228 287.83 460.228C289.473 460.228 290.826 459.687 291.89 458.604L293.766 460.76C293.094 461.563 292.245 462.169 291.218 462.58C290.191 462.991 289.034 463.196 287.746 463.196C286.103 463.196 284.657 462.869 283.406 462.216C282.155 461.563 281.185 460.657 280.494 459.5C279.822 458.324 279.486 456.999 279.486 455.524C279.486 454.068 279.813 452.761 280.466 451.604C281.138 450.428 282.062 449.513 283.238 448.86C284.414 448.207 285.739 447.88 287.214 447.88C288.67 447.88 289.967 448.207 291.106 448.86C292.263 449.495 293.159 450.4 293.794 451.576C294.447 452.733 294.774 454.077 294.774 455.608ZM287.214 450.68C286.094 450.68 285.142 451.016 284.358 451.688C283.593 452.341 283.126 453.219 282.958 454.32H291.442C291.293 453.237 290.835 452.36 290.07 451.688C289.305 451.016 288.353 450.68 287.214 450.68ZM302.756 463.196C301.543 463.196 300.357 463.037 299.2 462.72C298.043 462.403 297.119 462.001 296.428 461.516L297.772 458.856C298.444 459.304 299.247 459.668 300.18 459.948C301.132 460.209 302.065 460.34 302.98 460.34C305.071 460.34 306.116 459.789 306.116 458.688C306.116 458.165 305.845 457.801 305.304 457.596C304.781 457.391 303.932 457.195 302.756 457.008C301.524 456.821 300.516 456.607 299.732 456.364C298.967 456.121 298.295 455.701 297.716 455.104C297.156 454.488 296.876 453.639 296.876 452.556C296.876 451.137 297.464 450.008 298.64 449.168C299.835 448.309 301.44 447.88 303.456 447.88C304.483 447.88 305.509 448.001 306.536 448.244C307.563 448.468 308.403 448.776 309.056 449.168L307.712 451.828C306.443 451.081 305.015 450.708 303.428 450.708C302.401 450.708 301.617 450.867 301.076 451.184C300.553 451.483 300.292 451.884 300.292 452.388C300.292 452.948 300.572 453.349 301.132 453.592C301.711 453.816 302.597 454.031 303.792 454.236C304.987 454.423 305.967 454.637 306.732 454.88C307.497 455.123 308.151 455.533 308.692 456.112C309.252 456.691 309.532 457.512 309.532 458.576C309.532 459.976 308.925 461.096 307.712 461.936C306.499 462.776 304.847 463.196 302.756 463.196ZM327.022 448.048V463H323.69V461.096C323.13 461.768 322.43 462.291 321.59 462.664C320.75 463.019 319.845 463.196 318.874 463.196C316.877 463.196 315.299 462.645 314.142 461.544C313.003 460.424 312.434 458.772 312.434 456.588V448.048H315.934V456.112C315.934 457.456 316.233 458.464 316.83 459.136C317.446 459.789 318.314 460.116 319.434 460.116C320.685 460.116 321.674 459.733 322.402 458.968C323.149 458.184 323.522 457.064 323.522 455.608V448.048H327.022ZM331.605 442.224H335.105V463H331.605V442.224ZM349.425 462.188C349.014 462.524 348.51 462.776 347.913 462.944C347.334 463.112 346.718 463.196 346.065 463.196C344.422 463.196 343.153 462.767 342.257 461.908C341.361 461.049 340.913 459.799 340.913 458.156V450.96H338.449V448.16H340.913V444.744H344.413V448.16H348.417V450.96H344.413V458.072C344.413 458.8 344.59 459.36 344.945 459.752C345.299 460.125 345.813 460.312 346.485 460.312C347.269 460.312 347.922 460.107 348.445 459.696L349.425 462.188ZM358.016 447.88C360.218 447.88 361.898 448.412 363.056 449.476C364.232 450.521 364.82 452.108 364.82 454.236V463H361.516V461.18C361.086 461.833 360.47 462.337 359.668 462.692C358.884 463.028 357.932 463.196 356.812 463.196C355.692 463.196 354.712 463.009 353.872 462.636C353.032 462.244 352.378 461.712 351.912 461.04C351.464 460.349 351.24 459.575 351.24 458.716C351.24 457.372 351.734 456.299 352.724 455.496C353.732 454.675 355.309 454.264 357.456 454.264H361.32V454.04C361.32 452.995 361.002 452.192 360.368 451.632C359.752 451.072 358.828 450.792 357.596 450.792C356.756 450.792 355.925 450.923 355.104 451.184C354.301 451.445 353.62 451.809 353.06 452.276L351.688 449.728C352.472 449.131 353.414 448.673 354.516 448.356C355.617 448.039 356.784 447.88 358.016 447.88ZM357.54 460.648C358.417 460.648 359.192 460.452 359.864 460.06C360.554 459.649 361.04 459.071 361.32 458.324V456.588H357.708C355.692 456.588 354.684 457.251 354.684 458.576C354.684 459.211 354.936 459.715 355.44 460.088C355.944 460.461 356.644 460.648 357.54 460.648ZM384.092 442.224V463H380.732V461.068C380.154 461.777 379.435 462.309 378.576 462.664C377.736 463.019 376.803 463.196 375.776 463.196C374.339 463.196 373.042 462.879 371.884 462.244C370.746 461.609 369.85 460.713 369.196 459.556C368.543 458.38 368.216 457.036 368.216 455.524C368.216 454.012 368.543 452.677 369.196 451.52C369.85 450.363 370.746 449.467 371.884 448.832C373.042 448.197 374.339 447.88 375.776 447.88C376.766 447.88 377.671 448.048 378.492 448.384C379.314 448.72 380.014 449.224 380.592 449.896V442.224H384.092ZM376.196 460.2C377.036 460.2 377.792 460.013 378.464 459.64C379.136 459.248 379.668 458.697 380.06 457.988C380.452 457.279 380.648 456.457 380.648 455.524C380.648 454.591 380.452 453.769 380.06 453.06C379.668 452.351 379.136 451.809 378.464 451.436C377.792 451.044 377.036 450.848 376.196 450.848C375.356 450.848 374.6 451.044 373.928 451.436C373.256 451.809 372.724 452.351 372.332 453.06C371.94 453.769 371.744 454.591 371.744 455.524C371.744 456.457 371.94 457.279 372.332 457.988C372.724 458.697 373.256 459.248 373.928 459.64C374.6 460.013 375.356 460.2 376.196 460.2ZM395.391 463.196C393.879 463.196 392.516 462.869 391.303 462.216C390.09 461.563 389.138 460.657 388.447 459.5C387.775 458.324 387.439 456.999 387.439 455.524C387.439 454.049 387.775 452.733 388.447 451.576C389.138 450.419 390.09 449.513 391.303 448.86C392.516 448.207 393.879 447.88 395.391 447.88C396.922 447.88 398.294 448.207 399.507 448.86C400.72 449.513 401.663 450.419 402.335 451.576C403.026 452.733 403.371 454.049 403.371 455.524C403.371 456.999 403.026 458.324 402.335 459.5C401.663 460.657 400.72 461.563 399.507 462.216C398.294 462.869 396.922 463.196 395.391 463.196ZM395.391 460.2C396.679 460.2 397.743 459.771 398.583 458.912C399.423 458.053 399.843 456.924 399.843 455.524C399.843 454.124 399.423 452.995 398.583 452.136C397.743 451.277 396.679 450.848 395.391 450.848C394.103 450.848 393.039 451.277 392.199 452.136C391.378 452.995 390.967 454.124 390.967 455.524C390.967 456.924 391.378 458.053 392.199 458.912C393.039 459.771 394.103 460.2 395.391 460.2ZM420.532 444.856C419.057 444.856 418.32 445.659 418.32 447.264V448.16H422.436V450.96H418.432V463H414.932V450.96H412.468V448.16H414.932V447.208C414.932 445.603 415.399 444.343 416.332 443.428C417.265 442.495 418.581 442.028 420.28 442.028C421.624 442.028 422.679 442.299 423.444 442.84L422.464 445.472C421.867 445.061 421.223 444.856 420.532 444.856ZM431.293 463.196C429.781 463.196 428.419 462.869 427.205 462.216C425.992 461.563 425.04 460.657 424.349 459.5C423.677 458.324 423.341 456.999 423.341 455.524C423.341 454.049 423.677 452.733 424.349 451.576C425.04 450.419 425.992 449.513 427.205 448.86C428.419 448.207 429.781 447.88 431.293 447.88C432.824 447.88 434.196 448.207 435.409 448.86C436.623 449.513 437.565 450.419 438.237 451.576C438.928 452.733 439.273 454.049 439.273 455.524C439.273 456.999 438.928 458.324 438.237 459.5C437.565 460.657 436.623 461.563 435.409 462.216C434.196 462.869 432.824 463.196 431.293 463.196ZM431.293 460.2C432.581 460.2 433.645 459.771 434.485 458.912C435.325 458.053 435.745 456.924 435.745 455.524C435.745 454.124 435.325 452.995 434.485 452.136C433.645 451.277 432.581 450.848 431.293 450.848C430.005 450.848 428.941 451.277 428.101 452.136C427.28 452.995 426.869 454.124 426.869 455.524C426.869 456.924 427.28 458.053 428.101 458.912C428.941 459.771 430.005 460.2 431.293 460.2ZM442.62 448.048H446.12V463H442.62V448.048ZM444.384 445.584C443.75 445.584 443.218 445.388 442.788 444.996C442.359 444.585 442.144 444.081 442.144 443.484C442.144 442.887 442.359 442.392 442.788 442C443.218 441.589 443.75 441.384 444.384 441.384C445.019 441.384 445.551 441.58 445.98 441.972C446.41 442.345 446.624 442.821 446.624 443.4C446.624 444.016 446.41 444.539 445.98 444.968C445.57 445.379 445.038 445.584 444.384 445.584ZM472.508 455.608C472.508 455.851 472.49 456.196 472.452 456.644H460.72C460.926 457.745 461.458 458.623 462.316 459.276C463.194 459.911 464.276 460.228 465.564 460.228C467.207 460.228 468.56 459.687 469.624 458.604L471.5 460.76C470.828 461.563 469.979 462.169 468.952 462.58C467.926 462.991 466.768 463.196 465.48 463.196C463.838 463.196 462.391 462.869 461.14 462.216C459.89 461.563 458.919 460.657 458.228 459.5C457.556 458.324 457.22 456.999 457.22 455.524C457.22 454.068 457.547 452.761 458.2 451.604C458.872 450.428 459.796 449.513 460.972 448.86C462.148 448.207 463.474 447.88 464.948 447.88C466.404 447.88 467.702 448.207 468.84 448.86C469.998 449.495 470.894 450.4 471.528 451.576C472.182 452.733 472.508 454.077 472.508 455.608ZM464.948 450.68C463.828 450.68 462.876 451.016 462.092 451.688C461.327 452.341 460.86 453.219 460.692 454.32H469.176C469.027 453.237 468.57 452.36 467.804 451.688C467.039 451.016 466.087 450.68 464.948 450.68ZM484.354 447.88C486.24 447.88 487.752 448.431 488.89 449.532C490.029 450.633 490.598 452.267 490.598 454.432V463H487.098V454.88C487.098 453.573 486.79 452.593 486.174 451.94C485.558 451.268 484.681 450.932 483.542 450.932C482.254 450.932 481.237 451.324 480.49 452.108C479.744 452.873 479.37 453.984 479.37 455.44V463H475.87V448.048H479.202V449.98C479.781 449.289 480.509 448.767 481.386 448.412C482.264 448.057 483.253 447.88 484.354 447.88ZM502.035 463.196C500.486 463.196 499.095 462.869 497.863 462.216C496.631 461.563 495.67 460.657 494.979 459.5C494.288 458.324 493.943 456.999 493.943 455.524C493.943 454.049 494.288 452.733 494.979 451.576C495.67 450.419 496.622 449.513 497.835 448.86C499.067 448.207 500.467 447.88 502.035 447.88C503.51 447.88 504.798 448.179 505.899 448.776C507.019 449.373 507.859 450.232 508.419 451.352L505.731 452.92C505.302 452.229 504.76 451.716 504.107 451.38C503.472 451.025 502.772 450.848 502.007 450.848C500.7 450.848 499.618 451.277 498.759 452.136C497.9 452.976 497.471 454.105 497.471 455.524C497.471 456.943 497.891 458.081 498.731 458.94C499.59 459.78 500.682 460.2 502.007 460.2C502.772 460.2 503.472 460.032 504.107 459.696C504.76 459.341 505.302 458.819 505.731 458.128L508.419 459.696C507.84 460.816 506.991 461.684 505.871 462.3C504.77 462.897 503.491 463.196 502.035 463.196ZM517.946 463.196C516.434 463.196 515.071 462.869 513.858 462.216C512.644 461.563 511.692 460.657 511.002 459.5C510.33 458.324 509.994 456.999 509.994 455.524C509.994 454.049 510.33 452.733 511.002 451.576C511.692 450.419 512.644 449.513 513.858 448.86C515.071 448.207 516.434 447.88 517.946 447.88C519.476 447.88 520.848 448.207 522.062 448.86C523.275 449.513 524.218 450.419 524.89 451.576C525.58 452.733 525.926 454.049 525.926 455.524C525.926 456.999 525.58 458.324 524.89 459.5C524.218 460.657 523.275 461.563 522.062 462.216C520.848 462.869 519.476 463.196 517.946 463.196ZM517.946 460.2C519.234 460.2 520.298 459.771 521.138 458.912C521.978 458.053 522.398 456.924 522.398 455.524C522.398 454.124 521.978 452.995 521.138 452.136C520.298 451.277 519.234 450.848 517.946 450.848C516.658 450.848 515.594 451.277 514.754 452.136C513.932 452.995 513.522 454.124 513.522 455.524C513.522 456.924 513.932 458.053 514.754 458.912C515.594 459.771 516.658 460.2 517.946 460.2ZM537.757 447.88C539.642 447.88 541.154 448.431 542.293 449.532C543.431 450.633 544.001 452.267 544.001 454.432V463H540.501V454.88C540.501 453.573 540.193 452.593 539.577 451.94C538.961 451.268 538.083 450.932 536.945 450.932C535.657 450.932 534.639 451.324 533.893 452.108C533.146 452.873 532.773 453.984 532.773 455.44V463H529.273V448.048H532.605V449.98C533.183 449.289 533.911 448.767 534.789 448.412C535.666 448.057 536.655 447.88 537.757 447.88ZM557.429 462.188C557.018 462.524 556.514 462.776 555.917 462.944C555.338 463.112 554.722 463.196 554.069 463.196C552.426 463.196 551.157 462.767 550.261 461.908C549.365 461.049 548.917 459.799 548.917 458.156V450.96H546.453V448.16H548.917V444.744H552.417V448.16H556.421V450.96H552.417V458.072C552.417 458.8 552.594 459.36 552.949 459.752C553.303 460.125 553.817 460.312 554.489 460.312C555.273 460.312 555.926 460.107 556.449 459.696L557.429 462.188ZM563.64 450.232C564.648 448.664 566.421 447.88 568.96 447.88V451.212C568.661 451.156 568.39 451.128 568.148 451.128C566.785 451.128 565.721 451.529 564.956 452.332C564.19 453.116 563.808 454.255 563.808 455.748V463H560.308V448.048H563.64V450.232ZM577.559 447.88C579.761 447.88 581.441 448.412 582.599 449.476C583.775 450.521 584.363 452.108 584.363 454.236V463H581.059V461.18C580.629 461.833 580.013 462.337 579.211 462.692C578.427 463.028 577.475 463.196 576.355 463.196C575.235 463.196 574.255 463.009 573.415 462.636C572.575 462.244 571.921 461.712 571.455 461.04C571.007 460.349 570.783 459.575 570.783 458.716C570.783 457.372 571.277 456.299 572.267 455.496C573.275 454.675 574.852 454.264 576.999 454.264H580.863V454.04C580.863 452.995 580.545 452.192 579.911 451.632C579.295 451.072 578.371 450.792 577.139 450.792C576.299 450.792 575.468 450.923 574.647 451.184C573.844 451.445 573.163 451.809 572.603 452.276L571.231 449.728C572.015 449.131 572.957 448.673 574.059 448.356C575.16 448.039 576.327 447.88 577.559 447.88ZM577.083 460.648C577.96 460.648 578.735 460.452 579.407 460.06C580.097 459.649 580.583 459.071 580.863 458.324V456.588H577.251C575.235 456.588 574.227 457.251 574.227 458.576C574.227 459.211 574.479 459.715 574.983 460.088C575.487 460.461 576.187 460.648 577.083 460.648ZM603.635 442.224V463H600.275V461.068C599.697 461.777 598.978 462.309 598.119 462.664C597.279 463.019 596.346 463.196 595.319 463.196C593.882 463.196 592.585 462.879 591.427 462.244C590.289 461.609 589.393 460.713 588.739 459.556C588.086 458.38 587.759 457.036 587.759 455.524C587.759 454.012 588.086 452.677 588.739 451.52C589.393 450.363 590.289 449.467 591.427 448.832C592.585 448.197 593.882 447.88 595.319 447.88C596.309 447.88 597.214 448.048 598.035 448.384C598.857 448.72 599.557 449.224 600.135 449.896V442.224H603.635ZM595.739 460.2C596.579 460.2 597.335 460.013 598.007 459.64C598.679 459.248 599.211 458.697 599.603 457.988C599.995 457.279 600.191 456.457 600.191 455.524C600.191 454.591 599.995 453.769 599.603 453.06C599.211 452.351 598.679 451.809 598.007 451.436C597.335 451.044 596.579 450.848 595.739 450.848C594.899 450.848 594.143 451.044 593.471 451.436C592.799 451.809 592.267 452.351 591.875 453.06C591.483 453.769 591.287 454.591 591.287 455.524C591.287 456.457 591.483 457.279 591.875 457.988C592.267 458.697 592.799 459.248 593.471 459.64C594.143 460.013 594.899 460.2 595.739 460.2ZM614.934 463.196C613.422 463.196 612.059 462.869 610.846 462.216C609.633 461.563 608.681 460.657 607.99 459.5C607.318 458.324 606.982 456.999 606.982 455.524C606.982 454.049 607.318 452.733 607.99 451.576C608.681 450.419 609.633 449.513 610.846 448.86C612.059 448.207 613.422 447.88 614.934 447.88C616.465 447.88 617.837 448.207 619.05 448.86C620.263 449.513 621.206 450.419 621.878 451.576C622.569 452.733 622.914 454.049 622.914 455.524C622.914 456.999 622.569 458.324 621.878 459.5C621.206 460.657 620.263 461.563 619.05 462.216C617.837 462.869 616.465 463.196 614.934 463.196ZM614.934 460.2C616.222 460.2 617.286 459.771 618.126 458.912C618.966 458.053 619.386 456.924 619.386 455.524C619.386 454.124 618.966 452.995 618.126 452.136C617.286 451.277 616.222 450.848 614.934 450.848C613.646 450.848 612.582 451.277 611.742 452.136C610.921 452.995 610.51 454.124 610.51 455.524C610.51 456.924 610.921 458.053 611.742 458.912C612.582 459.771 613.646 460.2 614.934 460.2ZM625.813 443.4H629.957L629.257 456.504H626.485L625.813 443.4ZM627.885 463.196C627.232 463.196 626.69 462.991 626.261 462.58C625.832 462.151 625.617 461.628 625.617 461.012C625.617 460.396 625.832 459.883 626.261 459.472C626.69 459.061 627.232 458.856 627.885 458.856C628.52 458.856 629.042 459.061 629.453 459.472C629.882 459.883 630.097 460.396 630.097 461.012C630.097 461.628 629.882 462.151 629.453 462.58C629.042 462.991 628.52 463.196 627.885 463.196Z" fill="#F08889"/>
<path d="M204.182 492.2L196.862 509H193.79L186.446 492.2H189.83L195.422 505.16L201.062 492.2H204.182ZM216.754 502.664C216.754 502.872 216.738 503.168 216.706 503.552H206.65C206.826 504.496 207.282 505.248 208.018 505.808C208.77 506.352 209.698 506.624 210.802 506.624C212.21 506.624 213.37 506.16 214.282 505.232L215.89 507.08C215.314 507.768 214.586 508.288 213.706 508.64C212.826 508.992 211.834 509.168 210.73 509.168C209.322 509.168 208.082 508.888 207.01 508.328C205.938 507.768 205.106 506.992 204.514 506C203.938 504.992 203.65 503.856 203.65 502.592C203.65 501.344 203.93 500.224 204.49 499.232C205.066 498.224 205.858 497.44 206.866 496.88C207.874 496.32 209.01 496.04 210.274 496.04C211.522 496.04 212.634 496.32 213.61 496.88C214.602 497.424 215.37 498.2 215.914 499.208C216.474 500.2 216.754 501.352 216.754 502.664ZM210.274 498.44C209.314 498.44 208.498 498.728 207.826 499.304C207.17 499.864 206.77 500.616 206.626 501.56H213.898C213.77 500.632 213.378 499.88 212.722 499.304C212.066 498.728 211.25 498.44 210.274 498.44ZM222.492 498.056C223.356 496.712 224.876 496.04 227.052 496.04V498.896C226.796 498.848 226.564 498.824 226.356 498.824C225.188 498.824 224.276 499.168 223.62 499.856C222.964 500.528 222.636 501.504 222.636 502.784V509H219.636V496.184H222.492V498.056ZM229.597 496.184H232.597V509H229.597V496.184ZM231.109 494.072C230.565 494.072 230.109 493.904 229.741 493.568C229.373 493.216 229.189 492.784 229.189 492.272C229.189 491.76 229.373 491.336 229.741 491C230.109 490.648 230.565 490.472 231.109 490.472C231.653 490.472 232.109 490.64 232.477 490.976C232.845 491.296 233.029 491.704 233.029 492.2C233.029 492.728 232.845 493.176 232.477 493.544C232.125 493.896 231.669 494.072 231.109 494.072ZM241.742 493.448C240.478 493.448 239.846 494.136 239.846 495.512V496.28H243.374V498.68H239.942V509H236.942V498.68H234.83V496.28H236.942V495.464C236.942 494.088 237.342 493.008 238.142 492.224C238.942 491.424 240.07 491.024 241.526 491.024C242.678 491.024 243.582 491.256 244.238 491.72L243.398 493.976C242.886 493.624 242.334 493.448 241.742 493.448ZM247.31 496.184H250.31V509H247.31V496.184ZM248.822 494.072C248.278 494.072 247.822 493.904 247.454 493.568C247.086 493.216 246.902 492.784 246.902 492.272C246.902 491.76 247.086 491.336 247.454 491C247.822 490.648 248.278 490.472 248.822 490.472C249.366 490.472 249.822 490.64 250.19 490.976C250.558 491.296 250.742 491.704 250.742 492.2C250.742 492.728 250.558 493.176 250.19 493.544C249.838 493.896 249.382 494.072 248.822 494.072ZM266.781 496.184V513.656H263.781V507.44C262.773 508.592 261.405 509.168 259.677 509.168C258.429 509.168 257.309 508.896 256.317 508.352C255.341 507.808 254.573 507.04 254.013 506.048C253.469 505.056 253.197 503.904 253.197 502.592C253.197 501.296 253.477 500.152 254.037 499.16C254.597 498.168 255.365 497.4 256.341 496.856C257.317 496.312 258.429 496.04 259.677 496.04C260.557 496.04 261.357 496.192 262.077 496.496C262.813 496.8 263.429 497.256 263.925 497.864V496.184H266.781ZM260.013 506.6C261.117 506.6 262.029 506.232 262.749 505.496C263.469 504.76 263.829 503.792 263.829 502.592C263.829 501.392 263.469 500.424 262.749 499.688C262.029 498.952 261.117 498.584 260.013 498.584C258.909 498.584 257.997 498.952 257.277 499.688C256.573 500.424 256.221 501.392 256.221 502.592C256.221 503.792 256.573 504.76 257.277 505.496C257.997 506.232 258.909 506.6 260.013 506.6ZM283.114 496.184V509H280.258V507.368C279.778 507.944 279.178 508.392 278.458 508.712C277.738 509.016 276.962 509.168 276.13 509.168C274.418 509.168 273.066 508.696 272.074 507.752C271.098 506.792 270.61 505.376 270.61 503.504V496.184H273.61V503.096C273.61 504.248 273.866 505.112 274.378 505.688C274.906 506.248 275.65 506.528 276.61 506.528C277.682 506.528 278.53 506.2 279.154 505.544C279.794 504.872 280.114 503.912 280.114 502.664V496.184H283.114ZM299.09 502.664C299.09 502.872 299.074 503.168 299.042 503.552H288.986C289.162 504.496 289.618 505.248 290.354 505.808C291.106 506.352 292.034 506.624 293.138 506.624C294.546 506.624 295.706 506.16 296.618 505.232L298.226 507.08C297.65 507.768 296.922 508.288 296.042 508.64C295.162 508.992 294.17 509.168 293.066 509.168C291.658 509.168 290.418 508.888 289.346 508.328C288.274 507.768 287.442 506.992 286.85 506C286.274 504.992 285.986 503.856 285.986 502.592C285.986 501.344 286.266 500.224 286.826 499.232C287.402 498.224 288.194 497.44 289.202 496.88C290.21 496.32 291.346 496.04 292.61 496.04C293.858 496.04 294.97 496.32 295.946 496.88C296.938 497.424 297.706 498.2 298.25 499.208C298.81 500.2 299.09 501.352 299.09 502.664ZM292.61 498.44C291.65 498.44 290.834 498.728 290.162 499.304C289.506 499.864 289.106 500.616 288.962 501.56H296.234C296.106 500.632 295.714 499.88 295.058 499.304C294.402 498.728 293.586 498.44 292.61 498.44ZM312.565 509.168C311.525 509.168 310.509 509.032 309.517 508.76C308.525 508.488 307.733 508.144 307.141 507.728L308.293 505.448C308.869 505.832 309.557 506.144 310.357 506.384C311.173 506.608 311.973 506.72 312.757 506.72C314.549 506.72 315.445 506.248 315.445 505.304C315.445 504.856 315.213 504.544 314.749 504.368C314.301 504.192 313.573 504.024 312.565 503.864C311.509 503.704 310.645 503.52 309.973 503.312C309.317 503.104 308.741 502.744 308.245 502.232C307.765 501.704 307.525 500.976 307.525 500.048C307.525 498.832 308.029 497.864 309.037 497.144C310.061 496.408 311.437 496.04 313.165 496.04C314.045 496.04 314.925 496.144 315.805 496.352C316.685 496.544 317.405 496.808 317.965 497.144L316.813 499.424C315.725 498.784 314.501 498.464 313.141 498.464C312.261 498.464 311.589 498.6 311.125 498.872C310.677 499.128 310.453 499.472 310.453 499.904C310.453 500.384 310.693 500.728 311.173 500.936C311.669 501.128 312.429 501.312 313.453 501.488C314.477 501.648 315.317 501.832 315.973 502.04C316.629 502.248 317.189 502.6 317.653 503.096C318.133 503.592 318.373 504.296 318.373 505.208C318.373 506.408 317.853 507.368 316.813 508.088C315.773 508.808 314.357 509.168 312.565 509.168ZM333.004 502.664C333.004 502.872 332.988 503.168 332.956 503.552H322.9C323.076 504.496 323.532 505.248 324.268 505.808C325.02 506.352 325.948 506.624 327.052 506.624C328.46 506.624 329.62 506.16 330.532 505.232L332.14 507.08C331.564 507.768 330.836 508.288 329.956 508.64C329.076 508.992 328.084 509.168 326.98 509.168C325.572 509.168 324.332 508.888 323.26 508.328C322.188 507.768 321.356 506.992 320.764 506C320.188 504.992 319.9 503.856 319.9 502.592C319.9 501.344 320.18 500.224 320.74 499.232C321.316 498.224 322.108 497.44 323.116 496.88C324.124 496.32 325.26 496.04 326.524 496.04C327.772 496.04 328.884 496.32 329.86 496.88C330.852 497.424 331.62 498.2 332.164 499.208C332.724 500.2 333.004 501.352 333.004 502.664ZM326.524 498.44C325.564 498.44 324.748 498.728 324.076 499.304C323.42 499.864 323.02 500.616 322.876 501.56H330.148C330.02 500.632 329.628 499.88 328.972 499.304C328.316 498.728 327.5 498.44 326.524 498.44ZM354.567 502.664C354.567 502.872 354.551 503.168 354.519 503.552H344.463C344.639 504.496 345.095 505.248 345.831 505.808C346.583 506.352 347.511 506.624 348.615 506.624C350.023 506.624 351.183 506.16 352.095 505.232L353.703 507.08C353.127 507.768 352.399 508.288 351.519 508.64C350.639 508.992 349.647 509.168 348.543 509.168C347.135 509.168 345.895 508.888 344.823 508.328C343.751 507.768 342.919 506.992 342.327 506C341.751 504.992 341.463 503.856 341.463 502.592C341.463 501.344 341.743 500.224 342.303 499.232C342.879 498.224 343.671 497.44 344.679 496.88C345.687 496.32 346.823 496.04 348.087 496.04C349.335 496.04 350.447 496.32 351.423 496.88C352.415 497.424 353.183 498.2 353.727 499.208C354.287 500.2 354.567 501.352 354.567 502.664ZM348.087 498.44C347.127 498.44 346.311 498.728 345.639 499.304C344.983 499.864 344.583 500.616 344.439 501.56H351.711C351.583 500.632 351.191 499.88 350.535 499.304C349.879 498.728 349.063 498.44 348.087 498.44ZM361.408 509.168C360.368 509.168 359.352 509.032 358.36 508.76C357.368 508.488 356.576 508.144 355.984 507.728L357.136 505.448C357.712 505.832 358.4 506.144 359.2 506.384C360.016 506.608 360.816 506.72 361.6 506.72C363.392 506.72 364.288 506.248 364.288 505.304C364.288 504.856 364.056 504.544 363.592 504.368C363.144 504.192 362.416 504.024 361.408 503.864C360.352 503.704 359.488 503.52 358.816 503.312C358.16 503.104 357.584 502.744 357.088 502.232C356.608 501.704 356.368 500.976 356.368 500.048C356.368 498.832 356.872 497.864 357.88 497.144C358.904 496.408 360.28 496.04 362.008 496.04C362.888 496.04 363.768 496.144 364.648 496.352C365.528 496.544 366.248 496.808 366.808 497.144L365.656 499.424C364.568 498.784 363.344 498.464 361.984 498.464C361.104 498.464 360.432 498.6 359.968 498.872C359.52 499.128 359.296 499.472 359.296 499.904C359.296 500.384 359.536 500.728 360.016 500.936C360.512 501.128 361.272 501.312 362.296 501.488C363.32 501.648 364.16 501.832 364.816 502.04C365.472 502.248 366.032 502.6 366.496 503.096C366.976 503.592 367.216 504.296 367.216 505.208C367.216 506.408 366.696 507.368 365.656 508.088C364.616 508.808 363.2 509.168 361.408 509.168ZM375.68 509.168C374.352 509.168 373.16 508.888 372.104 508.328C371.048 507.768 370.224 506.992 369.632 506C369.04 504.992 368.744 503.856 368.744 502.592C368.744 501.328 369.04 500.2 369.632 499.208C370.224 498.216 371.04 497.44 372.08 496.88C373.136 496.32 374.336 496.04 375.68 496.04C376.944 496.04 378.048 496.296 378.992 496.808C379.952 497.32 380.672 498.056 381.152 499.016L378.848 500.36C378.48 499.768 378.016 499.328 377.456 499.04C376.912 498.736 376.312 498.584 375.656 498.584C374.536 498.584 373.608 498.952 372.872 499.688C372.136 500.408 371.768 501.376 371.768 502.592C371.768 503.808 372.128 504.784 372.848 505.52C373.584 506.24 374.52 506.6 375.656 506.6C376.312 506.6 376.912 506.456 377.456 506.168C378.016 505.864 378.48 505.416 378.848 504.824L381.152 506.168C380.656 507.128 379.928 507.872 378.968 508.4C378.024 508.912 376.928 509.168 375.68 509.168ZM386.601 498.056C387.465 496.712 388.985 496.04 391.161 496.04V498.896C390.905 498.848 390.673 498.824 390.465 498.824C389.297 498.824 388.385 499.168 387.729 499.856C387.073 500.528 386.745 501.504 386.745 502.784V509H383.745V496.184H386.601V498.056ZM393.706 496.184H396.706V509H393.706V496.184ZM395.218 494.072C394.674 494.072 394.218 493.904 393.85 493.568C393.482 493.216 393.298 492.784 393.298 492.272C393.298 491.76 393.482 491.336 393.85 491C394.218 490.648 394.674 490.472 395.218 490.472C395.762 490.472 396.218 490.64 396.586 490.976C396.954 491.296 397.138 491.704 397.138 492.2C397.138 492.728 396.954 493.176 396.586 493.544C396.234 493.896 395.778 494.072 395.218 494.072ZM408.348 508.304C407.996 508.592 407.564 508.808 407.052 508.952C406.556 509.096 406.028 509.168 405.468 509.168C404.06 509.168 402.972 508.8 402.204 508.064C401.436 507.328 401.052 506.256 401.052 504.848V498.68H398.94V496.28H401.052V493.352H404.052V496.28H407.484V498.68H404.052V504.776C404.052 505.4 404.204 505.88 404.508 506.216C404.812 506.536 405.252 506.696 405.828 506.696C406.5 506.696 407.06 506.52 407.508 506.168L408.348 508.304ZM415.712 496.04C417.6 496.04 419.04 496.496 420.032 497.408C421.04 498.304 421.544 499.664 421.544 501.488V509H418.712V507.44C418.344 508 417.816 508.432 417.128 508.736C416.456 509.024 415.64 509.168 414.68 509.168C413.72 509.168 412.88 509.008 412.16 508.688C411.44 508.352 410.88 507.896 410.48 507.32C410.096 506.728 409.904 506.064 409.904 505.328C409.904 504.176 410.328 503.256 411.176 502.568C412.04 501.864 413.392 501.512 415.232 501.512H418.544V501.32C418.544 500.424 418.272 499.736 417.728 499.256C417.2 498.776 416.408 498.536 415.352 498.536C414.632 498.536 413.92 498.648 413.216 498.872C412.528 499.096 411.944 499.408 411.464 499.808L410.288 497.624C410.96 497.112 411.768 496.72 412.712 496.448C413.656 496.176 414.656 496.04 415.712 496.04ZM415.304 506.984C416.056 506.984 416.72 506.816 417.296 506.48C417.888 506.128 418.304 505.632 418.544 504.992V503.504H415.448C413.72 503.504 412.856 504.072 412.856 505.208C412.856 505.752 413.072 506.184 413.504 506.504C413.936 506.824 414.536 506.984 415.304 506.984ZM444.075 502.664C444.075 502.872 444.059 503.168 444.027 503.552H433.971C434.147 504.496 434.603 505.248 435.339 505.808C436.091 506.352 437.019 506.624 438.123 506.624C439.531 506.624 440.691 506.16 441.603 505.232L443.211 507.08C442.635 507.768 441.907 508.288 441.027 508.64C440.147 508.992 439.155 509.168 438.051 509.168C436.643 509.168 435.403 508.888 434.331 508.328C433.259 507.768 432.427 506.992 431.835 506C431.259 504.992 430.971 503.856 430.971 502.592C430.971 501.344 431.251 500.224 431.811 499.232C432.387 498.224 433.179 497.44 434.187 496.88C435.195 496.32 436.331 496.04 437.595 496.04C438.843 496.04 439.955 496.32 440.931 496.88C441.923 497.424 442.691 498.2 443.235 499.208C443.795 500.2 444.075 501.352 444.075 502.664ZM437.595 498.44C436.635 498.44 435.819 498.728 435.147 499.304C434.491 499.864 434.091 500.616 433.947 501.56H441.219C441.091 500.632 440.699 499.88 440.043 499.304C439.387 498.728 438.571 498.44 437.595 498.44ZM450.916 509.168C449.876 509.168 448.86 509.032 447.868 508.76C446.876 508.488 446.084 508.144 445.492 507.728L446.644 505.448C447.22 505.832 447.908 506.144 448.708 506.384C449.524 506.608 450.324 506.72 451.108 506.72C452.9 506.72 453.796 506.248 453.796 505.304C453.796 504.856 453.564 504.544 453.1 504.368C452.652 504.192 451.924 504.024 450.916 503.864C449.86 503.704 448.996 503.52 448.324 503.312C447.668 503.104 447.092 502.744 446.596 502.232C446.116 501.704 445.876 500.976 445.876 500.048C445.876 498.832 446.38 497.864 447.388 497.144C448.412 496.408 449.788 496.04 451.516 496.04C452.396 496.04 453.276 496.144 454.156 496.352C455.036 496.544 455.756 496.808 456.316 497.144L455.164 499.424C454.076 498.784 452.852 498.464 451.492 498.464C450.612 498.464 449.94 498.6 449.476 498.872C449.028 499.128 448.804 499.472 448.804 499.904C448.804 500.384 449.044 500.728 449.524 500.936C450.02 501.128 450.78 501.312 451.804 501.488C452.828 501.648 453.668 501.832 454.324 502.04C454.98 502.248 455.54 502.6 456.004 503.096C456.484 503.592 456.724 504.296 456.724 505.208C456.724 506.408 456.204 507.368 455.164 508.088C454.124 508.808 452.708 509.168 450.916 509.168ZM467.012 508.304C466.66 508.592 466.228 508.808 465.716 508.952C465.22 509.096 464.692 509.168 464.132 509.168C462.724 509.168 461.636 508.8 460.868 508.064C460.1 507.328 459.716 506.256 459.716 504.848V498.68H457.604V496.28H459.716V493.352H462.716V496.28H466.148V498.68H462.716V504.776C462.716 505.4 462.868 505.88 463.172 506.216C463.476 506.536 463.916 506.696 464.492 506.696C465.164 506.696 465.724 506.52 466.172 506.168L467.012 508.304ZM474.376 496.04C476.264 496.04 477.704 496.496 478.696 497.408C479.704 498.304 480.208 499.664 480.208 501.488V509H477.376V507.44C477.008 508 476.48 508.432 475.792 508.736C475.12 509.024 474.304 509.168 473.344 509.168C472.384 509.168 471.544 509.008 470.824 508.688C470.104 508.352 469.544 507.896 469.144 507.32C468.76 506.728 468.568 506.064 468.568 505.328C468.568 504.176 468.992 503.256 469.84 502.568C470.704 501.864 472.056 501.512 473.896 501.512H477.208V501.32C477.208 500.424 476.936 499.736 476.392 499.256C475.864 498.776 475.072 498.536 474.016 498.536C473.296 498.536 472.584 498.648 471.88 498.872C471.192 499.096 470.608 499.408 470.128 499.808L468.952 497.624C469.624 497.112 470.432 496.72 471.376 496.448C472.32 496.176 473.32 496.04 474.376 496.04ZM473.968 506.984C474.72 506.984 475.384 506.816 475.96 506.48C476.552 506.128 476.968 505.632 477.208 504.992V503.504H474.112C472.384 503.504 471.52 504.072 471.52 505.208C471.52 505.752 471.736 506.184 472.168 506.504C472.6 506.824 473.2 506.984 473.968 506.984ZM475.864 491.144H479.392L475.216 494.432H472.624L475.864 491.144ZM496.571 509.168C495.243 509.168 494.051 508.888 492.995 508.328C491.939 507.768 491.115 506.992 490.523 506C489.931 504.992 489.635 503.856 489.635 502.592C489.635 501.328 489.931 500.2 490.523 499.208C491.115 498.216 491.931 497.44 492.971 496.88C494.027 496.32 495.227 496.04 496.571 496.04C497.835 496.04 498.939 496.296 499.883 496.808C500.843 497.32 501.563 498.056 502.043 499.016L499.739 500.36C499.371 499.768 498.907 499.328 498.347 499.04C497.803 498.736 497.203 498.584 496.547 498.584C495.427 498.584 494.499 498.952 493.763 499.688C493.027 500.408 492.659 501.376 492.659 502.592C492.659 503.808 493.019 504.784 493.739 505.52C494.475 506.24 495.411 506.6 496.547 506.6C497.203 506.6 497.803 506.456 498.347 506.168C498.907 505.864 499.371 505.416 499.739 504.824L502.043 506.168C501.547 507.128 500.819 507.872 499.859 508.4C498.915 508.912 497.819 509.168 496.571 509.168ZM510.208 509.168C508.912 509.168 507.744 508.888 506.704 508.328C505.664 507.768 504.848 506.992 504.256 506C503.68 504.992 503.392 503.856 503.392 502.592C503.392 501.328 503.68 500.2 504.256 499.208C504.848 498.216 505.664 497.44 506.704 496.88C507.744 496.32 508.912 496.04 510.208 496.04C511.52 496.04 512.696 496.32 513.736 496.88C514.776 497.44 515.584 498.216 516.16 499.208C516.752 500.2 517.048 501.328 517.048 502.592C517.048 503.856 516.752 504.992 516.16 506C515.584 506.992 514.776 507.768 513.736 508.328C512.696 508.888 511.52 509.168 510.208 509.168ZM510.208 506.6C511.312 506.6 512.224 506.232 512.944 505.496C513.664 504.76 514.024 503.792 514.024 502.592C514.024 501.392 513.664 500.424 512.944 499.688C512.224 498.952 511.312 498.584 510.208 498.584C509.104 498.584 508.192 498.952 507.472 499.688C506.768 500.424 506.416 501.392 506.416 502.592C506.416 503.792 506.768 504.76 507.472 505.496C508.192 506.232 509.104 506.6 510.208 506.6ZM522.773 498.056C523.637 496.712 525.157 496.04 527.333 496.04V498.896C527.077 498.848 526.845 498.824 526.637 498.824C525.469 498.824 524.557 499.168 523.901 499.856C523.245 500.528 522.917 501.504 522.917 502.784V509H519.917V496.184H522.773V498.056ZM532.734 498.056C533.598 496.712 535.118 496.04 537.294 496.04V498.896C537.038 498.848 536.806 498.824 536.598 498.824C535.43 498.824 534.518 499.168 533.862 499.856C533.206 500.528 532.878 501.504 532.878 502.784V509H529.878V496.184H532.734V498.056ZM551.77 502.664C551.77 502.872 551.754 503.168 551.722 503.552H541.666C541.842 504.496 542.298 505.248 543.034 505.808C543.786 506.352 544.714 506.624 545.818 506.624C547.226 506.624 548.386 506.16 549.298 505.232L550.906 507.08C550.33 507.768 549.602 508.288 548.722 508.64C547.842 508.992 546.85 509.168 545.746 509.168C544.338 509.168 543.098 508.888 542.026 508.328C540.954 507.768 540.122 506.992 539.53 506C538.954 504.992 538.666 503.856 538.666 502.592C538.666 501.344 538.946 500.224 539.506 499.232C540.082 498.224 540.874 497.44 541.882 496.88C542.89 496.32 544.026 496.04 545.29 496.04C546.538 496.04 547.65 496.32 548.626 496.88C549.618 497.424 550.386 498.2 550.93 499.208C551.49 500.2 551.77 501.352 551.77 502.664ZM545.29 498.44C544.33 498.44 543.514 498.728 542.842 499.304C542.186 499.864 541.786 500.616 541.642 501.56H548.914C548.786 500.632 548.394 499.88 547.738 499.304C547.082 498.728 546.266 498.44 545.29 498.44ZM562.356 508.304C562.004 508.592 561.572 508.808 561.06 508.952C560.564 509.096 560.036 509.168 559.476 509.168C558.068 509.168 556.98 508.8 556.212 508.064C555.444 507.328 555.06 506.256 555.06 504.848V498.68H552.948V496.28H555.06V493.352H558.06V496.28H561.492V498.68H558.06V504.776C558.06 505.4 558.212 505.88 558.516 506.216C558.82 506.536 559.26 506.696 559.836 506.696C560.508 506.696 561.068 506.52 561.516 506.168L562.356 508.304ZM569.719 496.04C571.607 496.04 573.047 496.496 574.039 497.408C575.047 498.304 575.551 499.664 575.551 501.488V509H572.719V507.44C572.351 508 571.823 508.432 571.135 508.736C570.463 509.024 569.647 509.168 568.687 509.168C567.727 509.168 566.887 509.008 566.167 508.688C565.447 508.352 564.887 507.896 564.487 507.32C564.103 506.728 563.911 506.064 563.911 505.328C563.911 504.176 564.335 503.256 565.183 502.568C566.047 501.864 567.399 501.512 569.239 501.512H572.551V501.32C572.551 500.424 572.279 499.736 571.735 499.256C571.207 498.776 570.415 498.536 569.359 498.536C568.639 498.536 567.927 498.648 567.223 498.872C566.535 499.096 565.951 499.408 565.471 499.808L564.295 497.624C564.967 497.112 565.775 496.72 566.719 496.448C567.663 496.176 568.663 496.04 569.719 496.04ZM569.311 506.984C570.063 506.984 570.727 506.816 571.303 506.48C571.895 506.128 572.311 505.632 572.551 504.992V503.504H569.455C567.727 503.504 566.863 504.072 566.863 505.208C566.863 505.752 567.079 506.184 567.511 506.504C567.943 506.824 568.543 506.984 569.311 506.984Z" fill="#9B9BB2"/>
<path d="M280.083 361.917L333.833 308.167M487.916 243.667C487.916 194.192 447.808 154.084 398.333 154.084C348.857 154.084 308.749 194.192 308.749 243.667C308.749 293.143 348.857 333.251 398.333 333.251" stroke="#E70000" stroke-opacity="0.45" stroke-width="4" stroke-linecap="round" stroke-linejoin="round"/>
<path d="M493.25 274.75L426.75 341.25" stroke="#F08889" stroke-width="4" stroke-linecap="round" stroke-linejoin="round"/>
<path d="M426.75 274.75L493.25 341.25" stroke="#F08889" stroke-width="4" stroke-linecap="round" stroke-linejoin="round"/>
<path d="M531.999 116.001C541.572 116.001 549.333 108.24 549.333 98.6673C549.333 89.0944 541.572 81.334 531.999 81.334C522.426 81.334 514.666 89.0944 514.666 98.6673C514.666 108.24 522.426 116.001 531.999 116.001Z" fill="#F5BDB2" stroke="#F2D6D0" stroke-linecap="round" stroke-linejoin="round"/>
<path d="M533.332 158.666H505.063C498.773 158.666 494.079 153.121 497.284 147.708C501.932 139.857 511.942 130.666 533.332 130.666" fill="#F5BDB2"/>
<path d="M533.332 158.666H505.063C498.773 158.666 494.079 153.121 497.284 147.708C501.932 139.857 511.942 130.666 533.332 130.666" stroke="#F2D6D0" stroke-linecap="round" stroke-linejoin="round"/>
</svg>